<svg width="55" height="18" viewBox="0 0 55 18" fill="none" xmlns="http://www.w3.org/2000/svg">
<path d="M0.336 14L4.368 4.2H5.488L9.492 14H7.756L4.62 6.062H5.208L2.044 14H0.336ZM2.324 12.11V10.71H7.518V12.11H2.324ZM14.2821 14.14C13.7687 14.14 13.3114 14.0327 12.9101 13.818C12.5087 13.594 12.1914 13.2907 11.9581 12.908C11.7341 12.5253 11.6221 12.0913 11.6221 11.606V9.674C11.6221 9.18867 11.7387 8.75467 11.9721 8.372C12.2054 7.98933 12.5227 7.69067 12.9241 7.476C13.3254 7.252 13.7781 7.14 14.2821 7.14C14.8887 7.14 15.4347 7.29867 15.9201 7.616C16.4147 7.924 16.8021 8.344 17.0821 8.876C17.3714 9.39867 17.5161 9.99133 17.5161 10.654C17.5161 11.3073 17.3714 11.9 17.0821 12.432C16.8021 12.9547 16.4147 13.37 15.9201 13.678C15.4347 13.986 14.8887 14.14 14.2821 14.14ZM10.6841 16.8V7.28H12.2241V9.086L11.9581 10.724L12.2241 12.348V16.8H10.6841ZM14.0301 12.684C14.4034 12.684 14.7301 12.6 15.0101 12.432C15.2994 12.2547 15.5234 12.012 15.6821 11.704C15.8501 11.396 15.9341 11.0413 15.9341 10.64C15.9341 10.2387 15.8501 9.884 15.6821 9.576C15.5234 9.268 15.2994 9.03 15.0101 8.862C14.7301 8.68467 14.4034 8.596 14.0301 8.596C13.6567 8.596 13.3254 8.68467 13.0361 8.862C12.7467 9.03 12.5227 9.268 12.3641 9.576C12.2054 9.884 12.1261 10.2387 12.1261 10.64C12.1261 11.0413 12.2054 11.396 12.3641 11.704C12.5227 12.012 12.7467 12.2547 13.0361 12.432C13.3254 12.6 13.6567 12.684 14.0301 12.684ZM22.4032 14.14C21.8898 14.14 21.4325 14.0327 21.0312 13.818C20.6298 13.594 20.3125 13.2907 20.0792 12.908C19.8552 12.5253 19.7432 12.0913 19.7432 11.606V9.674C19.7432 9.18867 19.8598 8.75467 20.0932 8.372C20.3265 7.98933 20.6438 7.69067 21.0452 7.476C21.4465 7.252 21.8992 7.14 22.4032 7.14C23.0098 7.14 23.5558 7.29867 24.0412 7.616C24.5358 7.924 24.9232 8.344 25.2032 8.876C25.4925 9.39867 25.6372 9.99133 25.6372 10.654C25.6372 11.3073 25.4925 11.9 25.2032 12.432C24.9232 12.9547 24.5358 13.37 24.0412 13.678C23.5558 13.986 23.0098 14.14 22.4032 14.14ZM18.8052 16.8V7.28H20.3452V9.086L20.0792 10.724L20.3452 12.348V16.8H18.8052ZM22.1512 12.684C22.5245 12.684 22.8512 12.6 23.1312 12.432C23.4205 12.2547 23.6445 12.012 23.8032 11.704C23.9712 11.396 24.0552 11.0413 24.0552 10.64C24.0552 10.2387 23.9712 9.884 23.8032 9.576C23.6445 9.268 23.4205 9.03 23.1312 8.862C22.8512 8.68467 22.5245 8.596 22.1512 8.596C21.7778 8.596 21.4465 8.68467 21.1572 8.862C20.8678 9.03 20.6438 9.268 20.4852 9.576C20.3265 9.884 20.2472 10.2387 20.2472 10.64C20.2472 11.0413 20.3265 11.396 20.4852 11.704C20.6438 12.012 20.8678 12.2547 21.1572 12.432C21.4465 12.6 21.7778 12.684 22.1512 12.684ZM29.1243 14.14C28.7509 14.14 28.3916 14.0933 28.0463 14C27.7009 13.8973 27.3836 13.7573 27.0943 13.58C26.8049 13.3933 26.5529 13.1693 26.3383 12.908L27.3183 11.928C27.5516 12.1987 27.8176 12.404 28.1163 12.544C28.4243 12.6747 28.7696 12.74 29.1523 12.74C29.4976 12.74 29.7589 12.6887 29.9363 12.586C30.1136 12.4833 30.2023 12.334 30.2023 12.138C30.2023 11.9327 30.1183 11.774 29.9503 11.662C29.7823 11.55 29.5629 11.4567 29.2923 11.382C29.0309 11.298 28.7509 11.214 28.4523 11.13C28.1629 11.046 27.8829 10.934 27.6123 10.794C27.3509 10.6447 27.1363 10.444 26.9683 10.192C26.8003 9.94 26.7163 9.61333 26.7163 9.212C26.7163 8.78267 26.8143 8.414 27.0103 8.106C27.2156 7.798 27.5003 7.56 27.8643 7.392C28.2376 7.224 28.6809 7.14 29.1943 7.14C29.7356 7.14 30.2116 7.238 30.6223 7.434C31.0423 7.62067 31.3923 7.90533 31.6723 8.288L30.6923 9.268C30.4963 9.02533 30.2723 8.84333 30.0203 8.722C29.7683 8.60067 29.4789 8.54 29.1523 8.54C28.8443 8.54 28.6063 8.58667 28.4383 8.68C28.2703 8.77333 28.1863 8.90867 28.1863 9.086C28.1863 9.27267 28.2703 9.41733 28.4383 9.52C28.6063 9.62267 28.8209 9.71133 29.0823 9.786C29.3529 9.86067 29.6329 9.94467 29.9223 10.038C30.2209 10.122 30.5009 10.2433 30.7623 10.402C31.0329 10.5513 31.2523 10.7567 31.4203 11.018C31.5883 11.27 31.6723 11.6013 31.6723 12.012C31.6723 12.6653 31.4436 13.1833 30.9863 13.566C30.5289 13.9487 29.9083 14.14 29.1243 14.14Z" fill="#5B5772"/>
<path d="M51.9141 6.78917C51.8599 6.73449 51.7954 6.69109 51.7243 6.66148C51.6532 6.63186 51.5769 6.61662 51.4999 6.61662C51.4229 6.61662 51.3467 6.63186 51.2756 6.66148C51.2045 6.69109 51.14 6.73449 51.0858 6.78917L48.4141 9.46083C48.3599 9.5155 48.2954 9.5589 48.2243 9.58851C48.1532 9.61813 48.0769 9.63338 47.9999 9.63338C47.9229 9.63338 47.8467 9.61813 47.7756 9.58851C47.7045 9.5589 47.64 9.5155 47.5858 9.46083L44.9141 6.78917C44.8599 6.73449 44.7954 6.69109 44.7243 6.66148C44.6532 6.63186 44.5769 6.61662 44.4999 6.61662C44.4229 6.61662 44.3467 6.63186 44.2756 6.66148C44.2045 6.69109 44.14 6.73449 44.0858 6.78917C43.9771 6.89846 43.9161 7.04631 43.9161 7.20042C43.9161 7.35452 43.9771 7.50237 44.0858 7.61166L46.7633 10.2892C47.0914 10.6169 47.5362 10.801 47.9999 10.801C48.4637 10.801 48.9085 10.6169 49.2366 10.2892L51.9141 7.61166C52.0227 7.50237 52.0837 7.35452 52.0837 7.20042C52.0837 7.04631 52.0227 6.89846 51.9141 6.78917Z" fill="#5B5772"/>
</svg>
