<svg width="84" height="30" viewBox="0 0 84 30" fill="none" xmlns="http://www.w3.org/2000/svg">
<path d="M0 5C0 2.23858 2.23858 0 5 0H79C81.7614 0 84 2.23858 84 5V25C84 27.7614 81.7614 30 79 30H5C2.23858 30 0 27.7614 0 25V5Z" fill="#0A65E4"/>
<path d="M25.558 20.14C24.858 20.14 24.2093 20.014 23.612 19.762C23.0147 19.5007 22.492 19.1413 22.044 18.684C21.6053 18.2267 21.2647 17.6947 21.022 17.088C20.7793 16.4813 20.658 15.8327 20.658 15.142C20.658 14.442 20.7793 13.7887 21.022 13.182C21.2647 12.5753 21.6053 12.048 22.044 11.6C22.492 11.1427 23.01 10.788 23.598 10.536C24.1953 10.2747 24.844 10.144 25.544 10.144C26.3093 10.144 26.9813 10.2747 27.56 10.536C28.1387 10.7973 28.652 11.152 29.1 11.6L28.19 12.51C27.882 12.1647 27.504 11.894 27.056 11.698C26.6173 11.502 26.1133 11.404 25.544 11.404C25.0307 11.404 24.5593 11.4973 24.13 11.684C23.7007 11.8613 23.3273 12.118 23.01 12.454C22.6927 12.79 22.4453 13.1867 22.268 13.644C22.1 14.1013 22.016 14.6007 22.016 15.142C22.016 15.6833 22.1 16.1827 22.268 16.64C22.4453 17.0973 22.6927 17.494 23.01 17.83C23.3273 18.166 23.7007 18.4273 24.13 18.614C24.5593 18.7913 25.0307 18.88 25.544 18.88C26.1507 18.88 26.678 18.782 27.126 18.586C27.574 18.3807 27.952 18.1053 28.26 17.76L29.17 18.656C28.722 19.1227 28.1947 19.4867 27.588 19.748C26.9907 20.0093 26.314 20.14 25.558 20.14ZM30.5627 20V13.35H31.8227V20H30.5627ZM31.8227 16.206L31.3467 15.996C31.3467 15.1467 31.5427 14.47 31.9347 13.966C32.3267 13.462 32.8913 13.21 33.6287 13.21C33.9647 13.21 34.268 13.2707 34.5387 13.392C34.8093 13.504 35.0613 13.6953 35.2947 13.966L34.4687 14.82C34.3287 14.6707 34.1747 14.5633 34.0067 14.498C33.8387 14.4327 33.6427 14.4 33.4187 14.4C32.952 14.4 32.5693 14.5493 32.2707 14.848C31.972 15.1467 31.8227 15.5993 31.8227 16.206ZM39.0431 20.14C38.3804 20.14 37.7831 19.9907 37.2511 19.692C36.7191 19.384 36.2991 18.9687 35.9911 18.446C35.6831 17.9233 35.5291 17.3307 35.5291 16.668C35.5291 16.0147 35.6784 15.4267 35.9771 14.904C36.2851 14.3813 36.6957 13.9707 37.2091 13.672C37.7317 13.364 38.3151 13.21 38.9591 13.21C39.5751 13.21 40.1164 13.35 40.5831 13.63C41.0591 13.91 41.4277 14.2973 41.6891 14.792C41.9597 15.2867 42.0951 15.8467 42.0951 16.472C42.0951 16.5653 42.0904 16.668 42.0811 16.78C42.0717 16.8827 42.0531 17.004 42.0251 17.144H36.4111V16.094H41.3531L40.8911 16.5C40.8911 16.052 40.8117 15.674 40.6531 15.366C40.4944 15.0487 40.2704 14.806 39.9811 14.638C39.6917 14.4607 39.3417 14.372 38.9311 14.372C38.5017 14.372 38.1237 14.4653 37.7971 14.652C37.4704 14.8387 37.2184 15.1 37.0411 15.436C36.8637 15.772 36.7751 16.1687 36.7751 16.626C36.7751 17.0927 36.8684 17.5033 37.0551 17.858C37.2417 18.2033 37.5077 18.474 37.8531 18.67C38.1984 18.8567 38.5951 18.95 39.0431 18.95C39.4164 18.95 39.7571 18.8847 40.0651 18.754C40.3824 18.6233 40.6531 18.4273 40.8771 18.166L41.6891 18.992C41.3717 19.3653 40.9797 19.65 40.5131 19.846C40.0557 20.042 39.5657 20.14 39.0431 20.14ZM46.2969 20.14C45.6903 20.14 45.1396 19.9907 44.6449 19.692C44.1503 19.384 43.7583 18.9687 43.4689 18.446C43.1889 17.9233 43.0489 17.3353 43.0489 16.682C43.0489 16.0287 43.1889 15.4407 43.4689 14.918C43.7583 14.3953 44.1456 13.98 44.6309 13.672C45.1256 13.364 45.6809 13.21 46.2969 13.21C46.8009 13.21 47.2489 13.3173 47.6409 13.532C48.0423 13.7373 48.3643 14.0267 48.6069 14.4C48.8496 14.764 48.9849 15.1887 49.0129 15.674V17.676C48.9849 18.152 48.8496 18.5767 48.6069 18.95C48.3736 19.3233 48.0563 19.6173 47.6549 19.832C47.2629 20.0373 46.8103 20.14 46.2969 20.14ZM46.5069 18.95C47.1323 18.95 47.6363 18.74 48.0189 18.32C48.4016 17.8907 48.5929 17.3447 48.5929 16.682C48.5929 16.2247 48.5043 15.828 48.3269 15.492C48.1589 15.1467 47.9163 14.8807 47.5989 14.694C47.2816 14.498 46.9129 14.4 46.4929 14.4C46.0729 14.4 45.6996 14.498 45.3729 14.694C45.0556 14.89 44.8036 15.1607 44.6169 15.506C44.4396 15.842 44.3509 16.2293 44.3509 16.668C44.3509 17.116 44.4396 17.5127 44.6169 17.858C44.8036 18.194 45.0603 18.46 45.3869 18.656C45.7136 18.852 46.0869 18.95 46.5069 18.95ZM48.5089 20V18.208L48.7469 16.584L48.5089 14.974V13.35H49.7829V20H48.5089ZM52.612 20V10.564H53.872V20H52.612ZM50.974 14.498V13.35H55.51V14.498H50.974ZM59.6192 20.14C58.9566 20.14 58.3592 19.9907 57.8272 19.692C57.2952 19.384 56.8752 18.9687 56.5672 18.446C56.2592 17.9233 56.1052 17.3307 56.1052 16.668C56.1052 16.0147 56.2546 15.4267 56.5532 14.904C56.8612 14.3813 57.2719 13.9707 57.7852 13.672C58.3079 13.364 58.8912 13.21 59.5352 13.21C60.1512 13.21 60.6926 13.35 61.1592 13.63C61.6352 13.91 62.0039 14.2973 62.2652 14.792C62.5359 15.2867 62.6712 15.8467 62.6712 16.472C62.6712 16.5653 62.6666 16.668 62.6572 16.78C62.6479 16.8827 62.6292 17.004 62.6012 17.144H56.9872V16.094H61.9292L61.4672 16.5C61.4672 16.052 61.3879 15.674 61.2292 15.366C61.0706 15.0487 60.8466 14.806 60.5572 14.638C60.2679 14.4607 59.9179 14.372 59.5072 14.372C59.0779 14.372 58.6999 14.4653 58.3732 14.652C58.0466 14.8387 57.7946 15.1 57.6172 15.436C57.4399 15.772 57.3512 16.1687 57.3512 16.626C57.3512 17.0927 57.4446 17.5033 57.6312 17.858C57.8179 18.2033 58.0839 18.474 58.4292 18.67C58.7746 18.8567 59.1712 18.95 59.6192 18.95C59.9926 18.95 60.3332 18.8847 60.6412 18.754C60.9586 18.6233 61.2292 18.4273 61.4532 18.166L62.2652 18.992C61.9479 19.3653 61.5559 19.65 61.0892 19.846C60.6319 20.042 60.1419 20.14 59.6192 20.14Z" fill="white"/>
</svg>
