<svg width="98" height="18" viewBox="0 0 98 18" fill="none" xmlns="http://www.w3.org/2000/svg">
<path d="M2.17 14V12.53H4.746C5.418 12.53 6.006 12.3853 6.51 12.096C7.02333 11.8067 7.42 11.4053 7.7 10.892C7.98933 10.3693 8.134 9.76733 8.134 9.086C8.134 8.414 7.98933 7.82133 7.7 7.308C7.41067 6.79467 7.00933 6.39333 6.496 6.104C5.992 5.81467 5.40867 5.67 4.746 5.67H2.17V4.2H4.788C5.49733 4.2 6.15533 4.326 6.762 4.578C7.36867 4.82067 7.896 5.166 8.344 5.614C8.80133 6.05267 9.156 6.57067 9.408 7.168C9.66 7.756 9.786 8.4 9.786 9.1C9.786 9.79067 9.66 10.4347 9.408 11.032C9.156 11.6293 8.806 12.152 8.358 12.6C7.91 13.0387 7.38267 13.384 6.776 13.636C6.16933 13.8787 5.516 14 4.816 14H2.17ZM1.064 14V4.2H2.674V14H1.064ZM14.0313 14.14C13.4246 14.14 12.8739 13.986 12.3793 13.678C11.8939 13.37 11.5066 12.9547 11.2173 12.432C10.9373 11.9 10.7973 11.3073 10.7973 10.654C10.7973 9.99133 10.9373 9.39867 11.2173 8.876C11.5066 8.344 11.8939 7.924 12.3793 7.616C12.8739 7.29867 13.4246 7.14 14.0313 7.14C14.5446 7.14 14.9973 7.252 15.3893 7.476C15.7906 7.69067 16.1079 7.98933 16.3413 8.372C16.5746 8.75467 16.6913 9.18867 16.6913 9.674V11.606C16.6913 12.0913 16.5746 12.5253 16.3413 12.908C16.1173 13.2907 15.8046 13.594 15.4033 13.818C15.0019 14.0327 14.5446 14.14 14.0313 14.14ZM14.2833 12.684C14.8526 12.684 15.3099 12.4927 15.6553 12.11C16.0099 11.7273 16.1873 11.2373 16.1873 10.64C16.1873 10.2387 16.1079 9.884 15.9493 9.576C15.7906 9.268 15.5666 9.03 15.2773 8.862C14.9973 8.68467 14.6659 8.596 14.2833 8.596C13.9099 8.596 13.5786 8.68467 13.2893 8.862C13.0093 9.03 12.7853 9.268 12.6173 9.576C12.4586 9.884 12.3793 10.2387 12.3793 10.64C12.3793 11.0413 12.4586 11.396 12.6173 11.704C12.7853 12.012 13.0093 12.2547 13.2893 12.432C13.5786 12.6 13.9099 12.684 14.2833 12.684ZM16.0893 14V12.194L16.3553 10.556L16.0893 8.932V7.28H17.6293V14H16.0893ZM21.5364 14.14C21.163 14.14 20.8037 14.0933 20.4584 14C20.113 13.8973 19.7957 13.7573 19.5064 13.58C19.217 13.3933 18.965 13.1693 18.7504 12.908L19.7304 11.928C19.9637 12.1987 20.2297 12.404 20.5284 12.544C20.8364 12.6747 21.1817 12.74 21.5644 12.74C21.9097 12.74 22.171 12.6887 22.3484 12.586C22.5257 12.4833 22.6144 12.334 22.6144 12.138C22.6144 11.9327 22.5304 11.774 22.3624 11.662C22.1944 11.55 21.975 11.4567 21.7044 11.382C21.443 11.298 21.163 11.214 20.8644 11.13C20.575 11.046 20.295 10.934 20.0244 10.794C19.763 10.6447 19.5484 10.444 19.3804 10.192C19.2124 9.94 19.1284 9.61333 19.1284 9.212C19.1284 8.78267 19.2264 8.414 19.4224 8.106C19.6277 7.798 19.9124 7.56 20.2764 7.392C20.6497 7.224 21.093 7.14 21.6064 7.14C22.1477 7.14 22.6237 7.238 23.0344 7.434C23.4544 7.62067 23.8044 7.90533 24.0844 8.288L23.1044 9.268C22.9084 9.02533 22.6844 8.84333 22.4324 8.722C22.1804 8.60067 21.891 8.54 21.5644 8.54C21.2564 8.54 21.0184 8.58667 20.8504 8.68C20.6824 8.77333 20.5984 8.90867 20.5984 9.086C20.5984 9.27267 20.6824 9.41733 20.8504 9.52C21.0184 9.62267 21.233 9.71133 21.4944 9.786C21.765 9.86067 22.045 9.94467 22.3344 10.038C22.633 10.122 22.913 10.2433 23.1744 10.402C23.445 10.5513 23.6644 10.7567 23.8324 11.018C24.0004 11.27 24.0844 11.6013 24.0844 12.012C24.0844 12.6653 23.8557 13.1833 23.3984 13.566C22.941 13.9487 22.3204 14.14 21.5364 14.14ZM29.96 14V10.122C29.96 9.674 29.8153 9.30533 29.526 9.016C29.246 8.72667 28.882 8.582 28.434 8.582C28.1353 8.582 27.8693 8.64733 27.636 8.778C27.4027 8.90867 27.2207 9.09067 27.09 9.324C26.9593 9.55733 26.894 9.82333 26.894 10.122L26.292 9.786C26.292 9.27267 26.404 8.82 26.628 8.428C26.852 8.02667 27.16 7.714 27.552 7.49C27.9533 7.25667 28.4013 7.14 28.896 7.14C29.4 7.14 29.848 7.252 30.24 7.476C30.632 7.7 30.94 8.01267 31.164 8.414C31.388 8.806 31.5 9.26333 31.5 9.786V14H29.96ZM25.354 14V3.92H26.894V14H25.354ZM36.6629 14.14C36.1496 14.14 35.6923 14.0327 35.2909 13.818C34.8896 13.594 34.5723 13.2907 34.3389 12.908C34.1149 12.5253 34.0029 12.0913 34.0029 11.606V9.674C34.0029 9.18867 34.1196 8.75467 34.3529 8.372C34.5863 7.98933 34.9036 7.69067 35.3049 7.476C35.7063 7.252 36.1589 7.14 36.6629 7.14C37.2696 7.14 37.8156 7.29867 38.3009 7.616C38.7956 7.924 39.1829 8.344 39.4629 8.876C39.7523 9.39867 39.8969 9.99133 39.8969 10.654C39.8969 11.3073 39.7523 11.9 39.4629 12.432C39.1829 12.9547 38.7956 13.37 38.3009 13.678C37.8156 13.986 37.2696 14.14 36.6629 14.14ZM33.0649 14V3.92H34.6049V8.932L34.3389 10.556L34.6049 12.194V14H33.0649ZM36.4109 12.684C36.7843 12.684 37.1109 12.6 37.3909 12.432C37.6803 12.2547 37.9043 12.012 38.0629 11.704C38.2309 11.396 38.3149 11.0413 38.3149 10.64C38.3149 10.2387 38.2309 9.884 38.0629 9.576C37.9043 9.268 37.6803 9.03 37.3909 8.862C37.1109 8.68467 36.7843 8.596 36.4109 8.596C36.0376 8.596 35.7063 8.68467 35.4169 8.862C35.1276 9.03 34.9036 9.268 34.7449 9.576C34.5863 9.884 34.5069 10.2387 34.5069 10.64C34.5069 11.0413 34.5863 11.396 34.7449 11.704C34.9036 12.012 35.1276 12.2547 35.4169 12.432C35.7063 12.6 36.0376 12.684 36.4109 12.684ZM44.266 14.14C43.6127 14.14 43.02 13.986 42.488 13.678C41.956 13.3607 41.5314 12.936 41.214 12.404C40.906 11.872 40.752 11.2793 40.752 10.626C40.752 9.97267 40.906 9.38467 41.214 8.862C41.5314 8.33933 41.956 7.924 42.488 7.616C43.02 7.29867 43.6127 7.14 44.266 7.14C44.9287 7.14 45.526 7.294 46.058 7.602C46.59 7.91 47.01 8.33 47.318 8.862C47.6354 9.38467 47.794 9.97267 47.794 10.626C47.794 11.2793 47.6354 11.872 47.318 12.404C47.01 12.936 46.59 13.3607 46.058 13.678C45.526 13.986 44.9287 14.14 44.266 14.14ZM44.266 12.656C44.6487 12.656 44.9847 12.572 45.274 12.404C45.5727 12.2267 45.8014 11.984 45.96 11.676C46.128 11.368 46.212 11.018 46.212 10.626C46.212 10.234 46.128 9.88867 45.96 9.59C45.792 9.29133 45.5634 9.058 45.274 8.89C44.9847 8.71267 44.6487 8.624 44.266 8.624C43.8927 8.624 43.5567 8.71267 43.258 8.89C42.9687 9.058 42.74 9.29133 42.572 9.59C42.4134 9.88867 42.334 10.234 42.334 10.626C42.334 11.018 42.4134 11.368 42.572 11.676C42.74 11.984 42.9687 12.2267 43.258 12.404C43.5567 12.572 43.8927 12.656 44.266 12.656ZM51.8887 14.14C51.282 14.14 50.7314 13.986 50.2367 13.678C49.7514 13.37 49.364 12.9547 49.0747 12.432C48.7947 11.9 48.6547 11.3073 48.6547 10.654C48.6547 9.99133 48.7947 9.39867 49.0747 8.876C49.364 8.344 49.7514 7.924 50.2367 7.616C50.7314 7.29867 51.282 7.14 51.8887 7.14C52.402 7.14 52.8547 7.252 53.2467 7.476C53.648 7.69067 53.9654 7.98933 54.1987 8.372C54.432 8.75467 54.5487 9.18867 54.5487 9.674V11.606C54.5487 12.0913 54.432 12.5253 54.1987 12.908C53.9747 13.2907 53.662 13.594 53.2607 13.818C52.8594 14.0327 52.402 14.14 51.8887 14.14ZM52.1407 12.684C52.71 12.684 53.1674 12.4927 53.5127 12.11C53.8674 11.7273 54.0447 11.2373 54.0447 10.64C54.0447 10.2387 53.9654 9.884 53.8067 9.576C53.648 9.268 53.424 9.03 53.1347 8.862C52.8547 8.68467 52.5234 8.596 52.1407 8.596C51.7674 8.596 51.436 8.68467 51.1467 8.862C50.8667 9.03 50.6427 9.268 50.4747 9.576C50.316 9.884 50.2367 10.2387 50.2367 10.64C50.2367 11.0413 50.316 11.396 50.4747 11.704C50.6427 12.012 50.8667 12.2547 51.1467 12.432C51.436 12.6 51.7674 12.684 52.1407 12.684ZM53.9467 14V12.194L54.2127 10.556L53.9467 8.932V7.28H55.4867V14H53.9467ZM57.1958 14V7.28H58.7358V14H57.1958ZM58.7358 10.262L58.2038 9.996C58.2038 9.14667 58.3905 8.46067 58.7638 7.938C59.1465 7.406 59.7205 7.14 60.4858 7.14C60.8218 7.14 61.1251 7.20067 61.3958 7.322C61.6665 7.44333 61.9185 7.63933 62.1518 7.91L61.1438 8.946C61.0225 8.81533 60.8871 8.722 60.7378 8.666C60.5885 8.61 60.4158 8.582 60.2198 8.582C59.7905 8.582 59.4358 8.71733 59.1558 8.988C58.8758 9.25867 58.7358 9.68333 58.7358 10.262ZM65.5059 14.14C64.8992 14.14 64.3486 13.986 63.8539 13.678C63.3686 13.37 62.9812 12.9547 62.6919 12.432C62.4119 11.9 62.2719 11.3073 62.2719 10.654C62.2719 9.99133 62.4119 9.39867 62.6919 8.876C62.9812 8.344 63.3686 7.924 63.8539 7.616C64.3486 7.29867 64.8992 7.14 65.5059 7.14C66.0192 7.14 66.4719 7.252 66.8639 7.476C67.2652 7.69067 67.5826 7.98933 67.8159 8.372C68.0492 8.75467 68.1659 9.18867 68.1659 9.674V11.606C68.1659 12.0913 68.0492 12.5253 67.8159 12.908C67.5919 13.2907 67.2792 13.594 66.8779 13.818C66.4766 14.0327 66.0192 14.14 65.5059 14.14ZM65.7579 12.684C66.1406 12.684 66.4719 12.6 66.7519 12.432C67.0412 12.2547 67.2652 12.012 67.4239 11.704C67.5826 11.396 67.6619 11.0413 67.6619 10.64C67.6619 10.2387 67.5826 9.884 67.4239 9.576C67.2652 9.268 67.0412 9.03 66.7519 8.862C66.4719 8.68467 66.1406 8.596 65.7579 8.596C65.3846 8.596 65.0532 8.68467 64.7639 8.862C64.4839 9.03 64.2599 9.268 64.0919 9.576C63.9332 9.884 63.8539 10.2387 63.8539 10.64C63.8539 11.0413 63.9332 11.396 64.0919 11.704C64.2599 12.012 64.4839 12.2547 64.7639 12.432C65.0532 12.6 65.3846 12.684 65.7579 12.684ZM69.1039 14H67.5639V12.194L67.8299 10.556L67.5639 8.932V3.92H69.1039V14ZM73.011 14.14C72.6377 14.14 72.2783 14.0933 71.933 14C71.5877 13.8973 71.2703 13.7573 70.981 13.58C70.6917 13.3933 70.4397 13.1693 70.225 12.908L71.205 11.928C71.4383 12.1987 71.7043 12.404 72.003 12.544C72.311 12.6747 72.6563 12.74 73.039 12.74C73.3843 12.74 73.6457 12.6887 73.823 12.586C74.0003 12.4833 74.089 12.334 74.089 12.138C74.089 11.9327 74.005 11.774 73.837 11.662C73.669 11.55 73.4497 11.4567 73.179 11.382C72.9177 11.298 72.6377 11.214 72.339 11.13C72.0497 11.046 71.7697 10.934 71.499 10.794C71.2377 10.6447 71.023 10.444 70.855 10.192C70.687 9.94 70.603 9.61333 70.603 9.212C70.603 8.78267 70.701 8.414 70.897 8.106C71.1023 7.798 71.387 7.56 71.751 7.392C72.1243 7.224 72.5677 7.14 73.081 7.14C73.6223 7.14 74.0983 7.238 74.509 7.434C74.929 7.62067 75.279 7.90533 75.559 8.288L74.579 9.268C74.383 9.02533 74.159 8.84333 73.907 8.722C73.655 8.60067 73.3657 8.54 73.039 8.54C72.731 8.54 72.493 8.58667 72.325 8.68C72.157 8.77333 72.073 8.90867 72.073 9.086C72.073 9.27267 72.157 9.41733 72.325 9.52C72.493 9.62267 72.7077 9.71133 72.969 9.786C73.2397 9.86067 73.5197 9.94467 73.809 10.038C74.1077 10.122 74.3877 10.2433 74.649 10.402C74.9197 10.5513 75.139 10.7567 75.307 11.018C75.475 11.27 75.559 11.6013 75.559 12.012C75.559 12.6653 75.3303 13.1833 74.873 13.566C74.4157 13.9487 73.795 14.14 73.011 14.14Z" fill="#5B5772"/>
<path d="M94.9141 6.78917C94.8599 6.73449 94.7954 6.69109 94.7243 6.66148C94.6532 6.63186 94.5769 6.61662 94.4999 6.61662C94.4229 6.61662 94.3467 6.63186 94.2756 6.66148C94.2045 6.69109 94.14 6.73449 94.0858 6.78917L91.4141 9.46083C91.3599 9.5155 91.2954 9.5589 91.2243 9.58851C91.1532 9.61813 91.0769 9.63338 90.9999 9.63338C90.9229 9.63338 90.8467 9.61813 90.7756 9.58851C90.7045 9.5589 90.64 9.5155 90.5858 9.46083L87.9141 6.78917C87.8599 6.73449 87.7954 6.69109 87.7243 6.66148C87.6532 6.63186 87.5769 6.61662 87.4999 6.61662C87.4229 6.61662 87.3467 6.63186 87.2756 6.66148C87.2045 6.69109 87.14 6.73449 87.0858 6.78917C86.9771 6.89846 86.9161 7.04631 86.9161 7.20042C86.9161 7.35452 86.9771 7.50237 87.0858 7.61166L89.7633 10.2892C90.0914 10.6169 90.5362 10.801 90.9999 10.801C91.4637 10.801 91.9085 10.6169 92.2366 10.2892L94.9141 7.61166C95.0227 7.50237 95.0837 7.35452 95.0837 7.20042C95.0837 7.04631 95.0227 6.89846 94.9141 6.78917Z" fill="#5B5772"/>
</svg>
