<svg width="121" height="30" viewBox="0 0 121 30" fill="none" xmlns="http://www.w3.org/2000/svg">
<mask id="path-1-inside-1_3031_729" fill="white">
<path d="M0 5C0 2.23858 2.23858 0 5 0H116C118.761 0 121 2.23858 121 5V25C121 27.7614 118.761 30 116 30H5C2.23857 30 0 27.7614 0 25V5Z"/>
</mask>
<path d="M5 0V1H116V0V-1H5V0ZM121 5H120V25H121H122V5H121ZM116 30V29H5V30V31H116V30ZM0 25H1V5H0H-1V25H0ZM5 30V29C2.79086 29 1 27.2091 1 25H0H-1C-1 28.3137 1.68629 31 5 31V30ZM121 25H120C120 27.2091 118.209 29 116 29V30V31C119.314 31 122 28.3137 122 25H121ZM116 0V1C118.209 1 120 2.79086 120 5H121H122C122 1.68629 119.314 -1 116 -1V0ZM5 0V-1C1.68629 -1 -1 1.68629 -1 5H0H1C1 2.79086 2.79086 1 5 1V0Z" fill="#CEE0FA" mask="url(#path-1-inside-1_3031_729)"/>
<g clip-path="url(#clip0_3031_729)">
<path d="M15.3334 16.3333C15.7016 16.3333 16.0001 16.0349 16.0001 15.6667C16.0001 15.2985 15.7016 15 15.3334 15C14.9652 15 14.6667 15.2985 14.6667 15.6667C14.6667 16.0349 14.9652 16.3333 15.3334 16.3333Z" fill="#705ECA"/>
<path d="M12.6667 13.6668C13.0349 13.6668 13.3333 13.3683 13.3333 13.0001C13.3333 12.6319 13.0349 12.3334 12.6667 12.3334C12.2985 12.3334 12 12.6319 12 13.0001C12 13.3683 12.2985 13.6668 12.6667 13.6668Z" fill="#705ECA"/>
<path d="M15.3334 10.9999C15.7016 10.9999 16.0001 10.7014 16.0001 10.3332C16.0001 9.96504 15.7016 9.66656 15.3334 9.66656C14.9652 9.66656 14.6667 9.96504 14.6667 10.3332C14.6667 10.7014 14.9652 10.9999 15.3334 10.9999Z" fill="#705ECA"/>
<path d="M12.6667 8.33333C13.0349 8.33333 13.3333 8.03486 13.3333 7.66667C13.3333 7.29848 13.0349 7 12.6667 7C12.2985 7 12 7.29848 12 7.66667C12 8.03486 12.2985 8.33333 12.6667 8.33333Z" fill="#705ECA"/>
<path d="M27.3334 16.3333C27.7016 16.3333 28.0001 16.0349 28.0001 15.6667C28.0001 15.2985 27.7016 15 27.3334 15C26.9652 15 26.6667 15.2985 26.6667 15.6667C26.6667 16.0349 26.9652 16.3333 27.3334 16.3333Z" fill="#705ECA"/>
<path d="M24.6667 13.6668C25.0349 13.6668 25.3333 13.3683 25.3333 13.0001C25.3333 12.6319 25.0349 12.3334 24.6667 12.3334C24.2985 12.3334 24 12.6319 24 13.0001C24 13.3683 24.2985 13.6668 24.6667 13.6668Z" fill="#705ECA"/>
<path d="M27.3334 10.9999C27.7016 10.9999 28.0001 10.7014 28.0001 10.3332C28.0001 9.96504 27.7016 9.66656 27.3334 9.66656C26.9652 9.66656 26.6667 9.96504 26.6667 10.3332C26.6667 10.7014 26.9652 10.9999 27.3334 10.9999Z" fill="#705ECA"/>
<path d="M24.6667 8.33333C25.0349 8.33333 25.3333 8.03485 25.3333 7.66666C25.3333 7.29847 25.0349 6.99999 24.6667 6.99999C24.2985 6.99999 24 7.29847 24 7.66666C24 8.03485 24.2985 8.33333 24.6667 8.33333Z" fill="#705ECA"/>
<path d="M21.3334 22.9999C21.7016 22.9999 22.0001 22.7014 22.0001 22.3332C22.0001 21.965 21.7016 21.6666 21.3334 21.6666C20.9652 21.6666 20.6667 21.965 20.6667 22.3332C20.6667 22.7014 20.9652 22.9999 21.3334 22.9999Z" fill="#705ECA"/>
<path d="M18.6667 20.3333C19.0349 20.3333 19.3333 20.0349 19.3333 19.6667C19.3333 19.2985 19.0349 19 18.6667 19C18.2985 19 18 19.2985 18 19.6667C18 20.0349 18.2985 20.3333 18.6667 20.3333Z" fill="#705ECA"/>
<path d="M21.3334 17.6668C21.7016 17.6668 22.0001 17.3683 22.0001 17.0001C22.0001 16.6319 21.7016 16.3334 21.3334 16.3334C20.9652 16.3334 20.6667 16.6319 20.6667 17.0001C20.6667 17.3683 20.9652 17.6668 21.3334 17.6668Z" fill="#705ECA"/>
<path d="M18.6667 14.9999C19.0349 14.9999 19.3333 14.7014 19.3333 14.3332C19.3333 13.965 19.0349 13.6666 18.6667 13.6666C18.2985 13.6666 18 13.965 18 14.3332C18 14.7014 18.2985 14.9999 18.6667 14.9999Z" fill="#705ECA"/>
<path d="M21.9999 8.99999C21.6463 8.99999 21.3072 8.85952 21.0571 8.60947C20.8071 8.35942 20.6666 8.02028 20.6666 7.66666C20.6666 7.48985 20.5963 7.32028 20.4713 7.19526C20.3463 7.07023 20.1767 6.99999 19.9999 6.99999C19.8231 6.99999 19.6535 7.07023 19.5285 7.19526C19.4035 7.32028 19.3332 7.48985 19.3332 7.66666C19.3332 8.02028 19.1928 8.35942 18.9427 8.60947C18.6927 8.85952 18.3535 8.99999 17.9999 8.99999C17.8231 8.99999 17.6535 9.07023 17.5285 9.19526C17.4035 9.32028 17.3333 9.48985 17.3333 9.66666C17.3333 9.84347 17.4035 10.013 17.5285 10.1381C17.6535 10.2631 17.8231 10.3333 17.9999 10.3333C18.3535 10.3333 18.6927 10.4738 18.9427 10.7239C19.1928 10.9739 19.3332 11.313 19.3332 11.6667C19.3332 11.8435 19.4035 12.013 19.5285 12.1381C19.6535 12.2631 19.8231 12.3333 19.9999 12.3333C20.1767 12.3333 20.3463 12.2631 20.4713 12.1381C20.5963 12.013 20.6666 11.8435 20.6666 11.6667C20.6666 11.313 20.8071 10.9739 21.0571 10.7239C21.3072 10.4738 21.6463 10.3333 21.9999 10.3333C22.1767 10.3333 22.3463 10.2631 22.4713 10.1381C22.5963 10.013 22.6666 9.84347 22.6666 9.66666C22.6666 9.48985 22.5963 9.32028 22.4713 9.19526C22.3463 9.07023 22.1767 8.99999 21.9999 8.99999Z" fill="#705ECA"/>
<path d="M16.6667 19.6666C16.313 19.6666 15.9739 19.5261 15.7239 19.276C15.4738 19.026 15.3333 18.6869 15.3333 18.3332C15.3333 18.1564 15.2631 17.9869 15.1381 17.8618C15.013 17.7368 14.8435 17.6666 14.6667 17.6666C14.4899 17.6666 14.3203 17.7368 14.1953 17.8618C14.0702 17.9869 14 18.1564 14 18.3332C14 18.6869 13.8595 19.026 13.6095 19.276C13.3594 19.5261 13.0203 19.6666 12.6667 19.6666C12.4899 19.6666 12.3203 19.7368 12.1953 19.8618C12.0702 19.9869 12 20.1564 12 20.3332C12 20.51 12.0702 20.6796 12.1953 20.8046C12.3203 20.9297 12.4899 20.9999 12.6667 20.9999C13.0203 20.9999 13.3594 21.1404 13.6095 21.3904C13.8595 21.6405 14 21.9796 14 22.3332C14 22.51 14.0702 22.6796 14.1953 22.8046C14.3203 22.9297 14.4899 22.9999 14.6667 22.9999C14.8435 22.9999 15.013 22.9297 15.1381 22.8046C15.2631 22.6796 15.3333 22.51 15.3333 22.3332C15.3333 21.9796 15.4738 21.6405 15.7239 21.3904C15.9739 21.1404 16.313 20.9999 16.6667 20.9999C16.8435 20.9999 17.013 20.9297 17.1381 20.8046C17.2631 20.6796 17.3333 20.51 17.3333 20.3332C17.3333 20.1564 17.2631 19.9869 17.1381 19.8618C17.013 19.7368 16.8435 19.6666 16.6667 19.6666Z" fill="#705ECA"/>
<path d="M27.3334 19.6666C26.9798 19.6666 26.6406 19.5261 26.3906 19.276C26.1406 19.026 26.0001 18.6869 26.0001 18.3332C26.0001 18.1564 25.9298 17.9869 25.8048 17.8618C25.6798 17.7368 25.5102 17.6666 25.3334 17.6666C25.1566 17.6666 24.987 17.7368 24.862 17.8618C24.737 17.9869 24.6667 18.1564 24.6667 18.3332C24.6667 18.6869 24.5263 19.026 24.2762 19.276C24.0262 19.5261 23.687 19.6666 23.3334 19.6666C23.1566 19.6666 22.987 19.7368 22.862 19.8618C22.737 19.9869 22.6667 20.1564 22.6667 20.3332C22.6667 20.51 22.737 20.6796 22.862 20.8046C22.987 20.9297 23.1566 20.9999 23.3334 20.9999C23.687 20.9999 24.0262 21.1404 24.2762 21.3904C24.5263 21.6405 24.6667 21.9796 24.6667 22.3332C24.6667 22.51 24.737 22.6796 24.862 22.8046C24.987 22.9297 25.1566 22.9999 25.3334 22.9999C25.5102 22.9999 25.6798 22.9297 25.8048 22.8046C25.9298 22.6796 26.0001 22.51 26.0001 22.3332C26.0001 21.9796 26.1406 21.6405 26.3906 21.3904C26.6406 21.1404 26.9798 20.9999 27.3334 20.9999C27.5102 20.9999 27.6798 20.9297 27.8048 20.8046C27.9298 20.6796 28.0001 20.51 28.0001 20.3332C28.0001 20.1564 27.9298 19.9869 27.8048 19.8618C27.6798 19.7368 27.5102 19.6666 27.3334 19.6666Z" fill="#705ECA"/>
</g>
<path d="M39.458 20.14C38.8233 20.14 38.2447 20.0233 37.722 19.79C37.2087 19.5473 36.7747 19.1973 36.42 18.74L37.316 17.844C37.5307 18.1707 37.8247 18.432 38.198 18.628C38.5713 18.8147 38.9867 18.908 39.444 18.908C39.8733 18.908 40.242 18.8287 40.55 18.67C40.8673 18.502 41.1147 18.2687 41.292 17.97C41.4787 17.6713 41.572 17.326 41.572 16.934C41.572 16.5327 41.4787 16.1873 41.292 15.898C41.1147 15.5993 40.8627 15.3707 40.536 15.212C40.2093 15.0533 39.822 14.974 39.374 14.974C39.206 14.974 39.038 14.988 38.87 15.016C38.702 15.0347 38.5387 15.0673 38.38 15.114L38.94 14.358C39.1173 14.274 39.3087 14.2087 39.514 14.162C39.7193 14.1153 39.9247 14.092 40.13 14.092C40.6527 14.092 41.1193 14.2133 41.53 14.456C41.95 14.6987 42.2813 15.0393 42.524 15.478C42.776 15.9167 42.902 16.4253 42.902 17.004C42.902 17.62 42.7527 18.166 42.454 18.642C42.1647 19.1087 41.7633 19.4773 41.25 19.748C40.7367 20.0093 40.1393 20.14 39.458 20.14ZM38.38 15.114V14.316L41.222 11.082L42.79 11.068L39.864 14.386L38.38 15.114ZM36.882 11.46V10.284H42.79V11.068L41.642 11.46H36.882ZM48.1532 20.14C47.4252 20.14 46.7579 19.9347 46.1512 19.524C45.5539 19.1133 45.0779 18.5347 44.7232 17.788C44.3685 17.032 44.1912 16.1453 44.1912 15.128C44.1912 14.1107 44.3639 13.2287 44.7092 12.482C45.0639 11.7353 45.5399 11.1613 46.1372 10.76C46.7345 10.3493 47.3925 10.144 48.1112 10.144C48.8485 10.144 49.5159 10.3493 50.1132 10.76C50.7105 11.1613 51.1819 11.7353 51.5272 12.482C51.8819 13.2287 52.0592 14.1153 52.0592 15.142C52.0592 16.1593 51.8819 17.046 51.5272 17.802C51.1819 18.5487 50.7105 19.1273 50.1132 19.538C49.5252 19.9393 48.8719 20.14 48.1532 20.14ZM48.1252 18.894C48.6385 18.894 49.0865 18.754 49.4692 18.474C49.8612 18.1847 50.1692 17.76 50.3932 17.2C50.6172 16.64 50.7292 15.9493 50.7292 15.128C50.7292 14.3067 50.6172 13.6207 50.3932 13.07C50.1692 12.51 49.8612 12.09 49.4692 11.81C49.0772 11.5207 48.6245 11.376 48.1112 11.376C47.6072 11.376 47.1592 11.5207 46.7672 11.81C46.3752 12.09 46.0672 12.51 45.8432 13.07C45.6285 13.6207 45.5212 14.3067 45.5212 15.128C45.5212 15.9493 45.6285 16.64 45.8432 17.2C46.0672 17.76 46.3752 18.1847 46.7672 18.474C47.1592 18.754 47.6119 18.894 48.1252 18.894ZM59.3708 20.14C58.7548 20.14 58.2041 19.9907 57.7188 19.692C57.2335 19.384 56.8461 18.9687 56.5568 18.446C56.2768 17.9233 56.1368 17.3353 56.1368 16.682C56.1368 16.0287 56.2768 15.4407 56.5568 14.918C56.8461 14.3953 57.2335 13.98 57.7188 13.672C58.2041 13.364 58.7548 13.21 59.3708 13.21C59.8655 13.21 60.3135 13.3173 60.7148 13.532C61.1161 13.7373 61.4381 14.0267 61.6808 14.4C61.9328 14.764 62.0728 15.1887 62.1008 15.674V17.676C62.0728 18.152 61.9375 18.5767 61.6948 18.95C61.4521 19.3233 61.1301 19.6173 60.7288 19.832C60.3275 20.0373 59.8748 20.14 59.3708 20.14ZM59.5808 18.95C60.0008 18.95 60.3648 18.852 60.6728 18.656C60.9901 18.46 61.2375 18.194 61.4148 17.858C61.5921 17.5127 61.6808 17.1207 61.6808 16.682C61.6808 16.2247 61.5875 15.828 61.4008 15.492C61.2235 15.156 60.9761 14.89 60.6588 14.694C60.3508 14.498 59.9868 14.4 59.5668 14.4C59.1468 14.4 58.7781 14.498 58.4608 14.694C58.1435 14.89 57.8915 15.1607 57.7048 15.506C57.5275 15.842 57.4388 16.2293 57.4388 16.668C57.4388 17.116 57.5275 17.5127 57.7048 17.858C57.8915 18.194 58.1435 18.46 58.4608 18.656C58.7875 18.852 59.1608 18.95 59.5808 18.95ZM62.8708 20H61.5968V18.208L61.8348 16.584L61.5968 14.974V10.004H62.8708V20ZM67.5333 20.14C66.9266 20.14 66.3759 19.9907 65.8813 19.692C65.3866 19.384 64.9946 18.9687 64.7052 18.446C64.4253 17.9233 64.2853 17.3353 64.2853 16.682C64.2853 16.0287 64.4253 15.4407 64.7052 14.918C64.9946 14.3953 65.3819 13.98 65.8673 13.672C66.3619 13.364 66.9173 13.21 67.5333 13.21C68.0373 13.21 68.4853 13.3173 68.8773 13.532C69.2786 13.7373 69.6006 14.0267 69.8433 14.4C70.0859 14.764 70.2213 15.1887 70.2493 15.674V17.676C70.2213 18.152 70.0859 18.5767 69.8433 18.95C69.6099 19.3233 69.2926 19.6173 68.8913 19.832C68.4993 20.0373 68.0466 20.14 67.5333 20.14ZM67.7433 18.95C68.3686 18.95 68.8726 18.74 69.2553 18.32C69.6379 17.8907 69.8293 17.3447 69.8293 16.682C69.8293 16.2247 69.7406 15.828 69.5633 15.492C69.3953 15.1467 69.1526 14.8807 68.8353 14.694C68.5179 14.498 68.1493 14.4 67.7293 14.4C67.3093 14.4 66.9359 14.498 66.6093 14.694C66.2919 14.89 66.0399 15.1607 65.8533 15.506C65.6759 15.842 65.5873 16.2293 65.5873 16.668C65.5873 17.116 65.6759 17.5127 65.8533 17.858C66.0399 18.194 66.2966 18.46 66.6233 18.656C66.9499 18.852 67.3233 18.95 67.7433 18.95ZM69.7453 20V18.208L69.9833 16.584L69.7453 14.974V13.35H71.0193V20H69.7453ZM75.0377 20.056L72.1537 13.35H73.5537L75.6957 18.6H75.2477L77.5017 13.35H78.9017L75.7937 20.056H75.0377ZM73.1337 22.786L75.0937 18.768L75.7937 20.056L74.5337 22.786H73.1337ZM81.913 20.14C81.5397 20.14 81.185 20.0933 80.849 20C80.5223 19.8973 80.219 19.7573 79.939 19.58C79.659 19.3933 79.4163 19.174 79.211 18.922L80.023 18.11C80.2657 18.4087 80.5457 18.6327 80.863 18.782C81.1803 18.922 81.535 18.992 81.927 18.992C82.319 18.992 82.6223 18.9267 82.837 18.796C83.0517 18.656 83.159 18.4647 83.159 18.222C83.159 17.9793 83.0703 17.7927 82.893 17.662C82.725 17.522 82.5057 17.41 82.235 17.326C81.9643 17.2327 81.675 17.144 81.367 17.06C81.0683 16.9667 80.7837 16.85 80.513 16.71C80.2423 16.57 80.0183 16.3787 79.841 16.136C79.673 15.8933 79.589 15.5713 79.589 15.17C79.589 14.7687 79.687 14.4233 79.883 14.134C80.079 13.8353 80.3497 13.6067 80.695 13.448C81.0497 13.2893 81.4743 13.21 81.969 13.21C82.4917 13.21 82.9537 13.3033 83.355 13.49C83.7657 13.6673 84.1017 13.938 84.363 14.302L83.551 15.114C83.3643 14.8713 83.131 14.6847 82.851 14.554C82.5803 14.4233 82.2723 14.358 81.927 14.358C81.563 14.358 81.283 14.4233 81.087 14.554C80.9003 14.6753 80.807 14.848 80.807 15.072C80.807 15.296 80.891 15.4687 81.059 15.59C81.227 15.7113 81.4463 15.814 81.717 15.898C81.997 15.982 82.2863 16.0707 82.585 16.164C82.8837 16.248 83.1683 16.3647 83.439 16.514C83.7097 16.6633 83.929 16.864 84.097 17.116C84.2743 17.368 84.363 17.6993 84.363 18.11C84.363 18.7353 84.139 19.23 83.691 19.594C83.2523 19.958 82.6597 20.14 81.913 20.14ZM88.6857 20V10.004H89.9457V20H88.6857ZM94.8692 20.14C94.2066 20.14 93.6092 19.9907 93.0772 19.692C92.5452 19.384 92.1252 18.9687 91.8172 18.446C91.5092 17.9233 91.3552 17.3307 91.3552 16.668C91.3552 16.0147 91.5046 15.4267 91.8032 14.904C92.1112 14.3813 92.5219 13.9707 93.0352 13.672C93.5579 13.364 94.1412 13.21 94.7852 13.21C95.4012 13.21 95.9426 13.35 96.4092 13.63C96.8852 13.91 97.2539 14.2973 97.5152 14.792C97.7859 15.2867 97.9212 15.8467 97.9212 16.472C97.9212 16.5653 97.9166 16.668 97.9072 16.78C97.8979 16.8827 97.8792 17.004 97.8512 17.144H92.2372V16.094H97.1792L96.7172 16.5C96.7172 16.052 96.6379 15.674 96.4792 15.366C96.3206 15.0487 96.0966 14.806 95.8072 14.638C95.5179 14.4607 95.1679 14.372 94.7572 14.372C94.3279 14.372 93.9499 14.4653 93.6232 14.652C93.2966 14.8387 93.0446 15.1 92.8672 15.436C92.6899 15.772 92.6012 16.1687 92.6012 16.626C92.6012 17.0927 92.6946 17.5033 92.8812 17.858C93.0679 18.2033 93.3339 18.474 93.6792 18.67C94.0246 18.8567 94.4212 18.95 94.8692 18.95C95.2426 18.95 95.5832 18.8847 95.8912 18.754C96.2086 18.6233 96.4792 18.4273 96.7032 18.166L97.5152 18.992C97.1979 19.3653 96.8059 19.65 96.3392 19.846C95.8819 20.042 95.3919 20.14 94.8692 20.14ZM100.042 20V12.356C100.042 11.8613 100.149 11.432 100.364 11.068C100.579 10.6947 100.873 10.4007 101.246 10.186C101.629 9.97133 102.072 9.864 102.576 9.864C102.959 9.864 103.29 9.92933 103.57 10.06C103.85 10.1907 104.107 10.382 104.34 10.634L103.514 11.446C103.393 11.3153 103.257 11.2173 103.108 11.152C102.959 11.0773 102.777 11.04 102.562 11.04C102.161 11.04 101.848 11.1567 101.624 11.39C101.409 11.6233 101.302 11.9453 101.302 12.356V20H100.042ZM98.404 14.498V13.35H103.416V14.498H98.404ZM105.307 20V10.564H106.567V20H105.307ZM103.669 14.498V13.35H108.205V14.498H103.669Z" fill="#0A65E4"/>
<defs>
<clipPath id="clip0_3031_729">
<rect width="16" height="16" fill="white" transform="translate(12 7)"/>
</clipPath>
</defs>
</svg>
