<svg width="61" height="18" viewBox="0 0 61 18" fill="none" xmlns="http://www.w3.org/2000/svg">
<path d="M1.064 14V4.2H2.674V14H1.064ZM2.17 9.8V8.33H7.154V9.8H2.17ZM2.17 5.67V4.2H7.392V5.67H2.17ZM8.79769 14V7.28H10.3377V14H8.79769ZM9.56769 6.048C9.30635 6.048 9.08702 5.95933 8.90969 5.782C8.74169 5.60467 8.65769 5.38533 8.65769 5.124C8.65769 4.86267 8.74169 4.64333 8.90969 4.466C9.08702 4.28867 9.30635 4.2 9.56769 4.2C9.83835 4.2 10.0577 4.28867 10.2257 4.466C10.3937 4.64333 10.4777 4.86267 10.4777 5.124C10.4777 5.38533 10.3937 5.60467 10.2257 5.782C10.0577 5.95933 9.83835 6.048 9.56769 6.048ZM12.0649 14V3.92H13.6049V14H12.0649ZM16.3408 14V4.48H17.8808V14H16.3408ZM14.7308 8.68V7.28H19.4908V8.68H14.7308ZM23.5405 14.14C22.8685 14.14 22.2618 13.9907 21.7205 13.692C21.1885 13.384 20.7638 12.964 20.4465 12.432C20.1385 11.9 19.9845 11.3027 19.9845 10.64C19.9845 9.97733 20.1385 9.38467 20.4465 8.862C20.7545 8.33 21.1698 7.91 21.6925 7.602C22.2245 7.294 22.8125 7.14 23.4565 7.14C24.0818 7.14 24.6325 7.28467 25.1085 7.574C25.5938 7.86333 25.9718 8.26 26.2425 8.764C26.5225 9.268 26.6625 9.842 26.6625 10.486C26.6625 10.598 26.6531 10.7147 26.6345 10.836C26.6251 10.948 26.6065 11.074 26.5785 11.214H21.0625V9.954H25.7805L25.2065 10.458C25.1878 10.0473 25.1085 9.702 24.9685 9.422C24.8285 9.142 24.6278 8.92733 24.3665 8.778C24.1145 8.62867 23.8018 8.554 23.4285 8.554C23.0365 8.554 22.6958 8.638 22.4065 8.806C22.1171 8.974 21.8931 9.212 21.7345 9.52C21.5758 9.81867 21.4965 10.178 21.4965 10.598C21.4965 11.018 21.5805 11.3867 21.7485 11.704C21.9165 12.0213 22.1545 12.2687 22.4625 12.446C22.7705 12.614 23.1251 12.698 23.5265 12.698C23.8718 12.698 24.1891 12.6373 24.4785 12.516C24.7771 12.3947 25.0291 12.2173 25.2345 11.984L26.2145 12.978C25.8878 13.3607 25.4911 13.65 25.0245 13.846C24.5578 14.042 24.0631 14.14 23.5405 14.14ZM27.897 14V7.28H29.437V14H27.897ZM29.437 10.262L28.905 9.996C28.905 9.14667 29.0916 8.46067 29.465 7.938C29.8476 7.406 30.4216 7.14 31.187 7.14C31.523 7.14 31.8263 7.20067 32.097 7.322C32.3676 7.44333 32.6196 7.63933 32.853 7.91L31.845 8.946C31.7236 8.81533 31.5883 8.722 31.439 8.666C31.2896 8.61 31.117 8.582 30.921 8.582C30.4916 8.582 30.137 8.71733 29.857 8.988C29.577 9.25867 29.437 9.68333 29.437 10.262ZM35.6458 14.14C35.2724 14.14 34.9131 14.0933 34.5678 14C34.2224 13.8973 33.9051 13.7573 33.6158 13.58C33.3264 13.3933 33.0744 13.1693 32.8598 12.908L33.8398 11.928C34.0731 12.1987 34.3391 12.404 34.6378 12.544C34.9458 12.6747 35.2911 12.74 35.6738 12.74C36.0191 12.74 36.2804 12.6887 36.4578 12.586C36.6351 12.4833 36.7238 12.334 36.7238 12.138C36.7238 11.9327 36.6398 11.774 36.4718 11.662C36.3038 11.55 36.0844 11.4567 35.8138 11.382C35.5524 11.298 35.2724 11.214 34.9738 11.13C34.6844 11.046 34.4044 10.934 34.1338 10.794C33.8724 10.6447 33.6578 10.444 33.4898 10.192C33.3218 9.94 33.2378 9.61333 33.2378 9.212C33.2378 8.78267 33.3358 8.414 33.5318 8.106C33.7371 7.798 34.0218 7.56 34.3858 7.392C34.7591 7.224 35.2024 7.14 35.7158 7.14C36.2571 7.14 36.7331 7.238 37.1438 7.434C37.5638 7.62067 37.9138 7.90533 38.1938 8.288L37.2138 9.268C37.0178 9.02533 36.7938 8.84333 36.5418 8.722C36.2898 8.60067 36.0004 8.54 35.6738 8.54C35.3658 8.54 35.1278 8.58667 34.9598 8.68C34.7918 8.77333 34.7078 8.90867 34.7078 9.086C34.7078 9.27267 34.7918 9.41733 34.9598 9.52C35.1278 9.62267 35.3424 9.71133 35.6038 9.786C35.8744 9.86067 36.1544 9.94467 36.4438 10.038C36.7424 10.122 37.0224 10.2433 37.2838 10.402C37.5544 10.5513 37.7738 10.7567 37.9418 11.018C38.1098 11.27 38.1938 11.6013 38.1938 12.012C38.1938 12.6653 37.9651 13.1833 37.5078 13.566C37.0504 13.9487 36.4298 14.14 35.6458 14.14Z" fill="#5B5772"/>
<path d="M57.9141 6.78917C57.8599 6.73449 57.7954 6.69109 57.7243 6.66148C57.6532 6.63186 57.5769 6.61662 57.4999 6.61662C57.4229 6.61662 57.3467 6.63186 57.2756 6.66148C57.2045 6.69109 57.14 6.73449 57.0858 6.78917L54.4141 9.46083C54.3599 9.5155 54.2954 9.5589 54.2243 9.58851C54.1532 9.61813 54.0769 9.63338 53.9999 9.63338C53.9229 9.63338 53.8467 9.61813 53.7756 9.58851C53.7045 9.5589 53.64 9.5155 53.5858 9.46083L50.9141 6.78917C50.8599 6.73449 50.7954 6.69109 50.7243 6.66148C50.6532 6.63186 50.5769 6.61662 50.4999 6.61662C50.4229 6.61662 50.3467 6.63186 50.2756 6.66148C50.2045 6.69109 50.14 6.73449 50.0858 6.78917C49.9771 6.89846 49.9161 7.04631 49.9161 7.20042C49.9161 7.35452 49.9771 7.50237 50.0858 7.61166L52.7633 10.2892C53.0914 10.6169 53.5362 10.801 53.9999 10.801C54.4637 10.801 54.9085 10.6169 55.2366 10.2892L57.9141 7.61166C58.0227 7.50237 58.0837 7.35452 58.0837 7.20042C58.0837 7.04631 58.0227 6.89846 57.9141 6.78917Z" fill="#5B5772"/>
</svg>
