<svg width="73" height="32" viewBox="0 0 73 32" fill="none" xmlns="http://www.w3.org/2000/svg">
<path d="M27.0058 4H15.4513C15.4513 6.88 17.7823 9.212 20.663 9.212H22.788V11.2685C22.788 14.1485 25.12 16.4805 28 16.4805V4.99425C27.9998 4.73062 27.895 4.47784 27.7086 4.29143C27.5222 4.10501 27.2694 4.0002 27.0058 4Z" fill="#2684FF"/>
<path d="M21.2802 9.76H9.72546C9.72546 12.6398 12.0567 14.9718 14.9365 14.9718H17.0625V17.0282C17.0625 19.9082 19.3945 22.2402 22.2745 22.2402V10.754C22.2741 10.4904 22.1692 10.2378 21.9828 10.0514C21.7964 9.86503 21.5438 9.76015 21.2802 9.75975V9.76Z" fill="url(#paint0_linear_3031_684)"/>
<path d="M15.5548 15.5195H4C4 18.4005 6.331 20.7315 9.212 20.7315H11.337V22.789C11.337 25.669 13.669 28 16.5487 28V16.5148C16.5485 16.2511 16.4437 15.9983 16.2574 15.8118C16.0711 15.6253 15.8184 15.5203 15.5548 15.5198V15.5195Z" fill="url(#paint1_linear_3031_684)"/>
<path d="M45.78 22.68C45.06 22.68 44.424 22.542 43.872 22.266C43.332 21.978 42.888 21.594 42.54 21.114L43.728 20.016C43.956 20.352 44.238 20.61 44.574 20.79C44.922 20.97 45.306 21.06 45.726 21.06C46.146 21.06 46.518 20.97 46.842 20.79C47.166 20.61 47.418 20.346 47.598 19.998C47.79 19.638 47.886 19.2 47.886 18.684V10.008H49.578V18.594C49.578 19.422 49.41 20.142 49.074 20.754C48.75 21.366 48.3 21.84 47.724 22.176C47.16 22.512 46.512 22.68 45.78 22.68ZM52.1181 22.5V13.95H53.7381V22.5H52.1181ZM52.9281 12.24C52.6281 12.24 52.3821 12.144 52.1901 11.952C51.9981 11.748 51.9021 11.496 51.9021 11.196C51.9021 10.908 51.9981 10.668 52.1901 10.476C52.3821 10.272 52.6281 10.17 52.9281 10.17C53.2281 10.17 53.4741 10.272 53.6661 10.476C53.8581 10.668 53.9541 10.908 53.9541 11.196C53.9541 11.496 53.8581 11.748 53.6661 11.952C53.4741 12.144 53.2281 12.24 52.9281 12.24ZM56.1255 22.5V13.95H57.7455V22.5H56.1255ZM57.7455 17.622L57.1335 17.352C57.1335 16.26 57.3855 15.39 57.8895 14.742C58.3935 14.094 59.1195 13.77 60.0675 13.77C60.4995 13.77 60.8895 13.848 61.2375 14.004C61.5855 14.148 61.9095 14.394 62.2095 14.742L61.1475 15.84C60.9675 15.648 60.7695 15.51 60.5535 15.426C60.3375 15.342 60.0855 15.3 59.7975 15.3C59.1975 15.3 58.7055 15.492 58.3215 15.876C57.9375 16.26 57.7455 16.842 57.7455 17.622ZM66.7049 22.68C65.9249 22.68 65.2169 22.488 64.5809 22.104C63.9449 21.708 63.4409 21.174 63.0689 20.502C62.7089 19.83 62.5289 19.074 62.5289 18.234C62.5289 17.394 62.7089 16.638 63.0689 15.966C63.4409 15.294 63.9389 14.76 64.5629 14.364C65.1989 13.968 65.9129 13.77 66.7049 13.77C67.3529 13.77 67.9289 13.908 68.4329 14.184C68.9489 14.448 69.3629 14.82 69.6749 15.3C69.9869 15.768 70.1609 16.314 70.1969 16.938V19.512C70.1609 20.124 69.9869 20.67 69.6749 21.15C69.3749 21.63 68.9669 22.008 68.4509 22.284C67.9469 22.548 67.3649 22.68 66.7049 22.68ZM66.9749 21.15C67.7789 21.15 68.4269 20.88 68.9189 20.34C69.4109 19.788 69.6569 19.086 69.6569 18.234C69.6569 17.646 69.5429 17.136 69.3149 16.704C69.0989 16.26 68.7869 15.918 68.3789 15.678C67.9709 15.426 67.4969 15.3 66.9569 15.3C66.4169 15.3 65.9369 15.426 65.5169 15.678C65.1089 15.93 64.7849 16.278 64.5449 16.722C64.3169 17.154 64.2029 17.652 64.2029 18.216C64.2029 18.792 64.3169 19.302 64.5449 19.746C64.7849 20.178 65.1149 20.52 65.5349 20.772C65.9549 21.024 66.4349 21.15 66.9749 21.15ZM69.5489 22.5V20.196L69.8549 18.108L69.5489 16.038V13.95H71.1869V22.5H69.5489Z" fill="black"/>
<defs>
<linearGradient id="paint0_linear_3031_684" x1="22.034" y1="9.773" x2="17.118" y2="14.842" gradientUnits="userSpaceOnUse">
<stop offset="0.176" stop-color="#0052CC"/>
<stop offset="1" stop-color="#2684FF"/>
</linearGradient>
<linearGradient id="paint1_linear_3031_684" x1="16.641" y1="15.564" x2="10.957" y2="21.094" gradientUnits="userSpaceOnUse">
<stop offset="0.176" stop-color="#0052CC"/>
<stop offset="1" stop-color="#2684FF"/>
</linearGradient>
</defs>
</svg>
