<svg width="56" height="18" viewBox="0 0 56 18" fill="none" xmlns="http://www.w3.org/2000/svg">
<path d="M2.17 10.304V8.904H4.62C4.956 8.904 5.25 8.83867 5.502 8.708C5.76333 8.568 5.96867 8.37667 6.118 8.134C6.26733 7.882 6.342 7.588 6.342 7.252C6.342 6.916 6.26733 6.62667 6.118 6.384C5.96867 6.132 5.76333 5.94067 5.502 5.81C5.25 5.67 4.956 5.6 4.62 5.6H2.17V4.2H4.704C5.32 4.2 5.87067 4.326 6.356 4.578C6.85067 4.83 7.238 5.18467 7.518 5.642C7.80733 6.09933 7.952 6.636 7.952 7.252C7.952 7.868 7.80733 8.40467 7.518 8.862C7.238 9.31933 6.85067 9.674 6.356 9.926C5.87067 10.178 5.32 10.304 4.704 10.304H2.17ZM1.064 14V4.2H2.674V14H1.064ZM9.30322 14V3.92H10.8432V14H9.30322ZM15.3711 14.14C14.7645 14.14 14.2138 13.986 13.7191 13.678C13.2338 13.37 12.8465 12.9547 12.5571 12.432C12.2771 11.9 12.1371 11.3073 12.1371 10.654C12.1371 9.99133 12.2771 9.39867 12.5571 8.876C12.8465 8.344 13.2338 7.924 13.7191 7.616C14.2138 7.29867 14.7645 7.14 15.3711 7.14C15.8845 7.14 16.3371 7.252 16.7291 7.476C17.1305 7.69067 17.4478 7.98933 17.6811 8.372C17.9145 8.75467 18.0311 9.18867 18.0311 9.674V11.606C18.0311 12.0913 17.9145 12.5253 17.6811 12.908C17.4571 13.2907 17.1445 13.594 16.7431 13.818C16.3418 14.0327 15.8845 14.14 15.3711 14.14ZM15.6231 12.684C16.1925 12.684 16.6498 12.4927 16.9951 12.11C17.3498 11.7273 17.5271 11.2373 17.5271 10.64C17.5271 10.2387 17.4478 9.884 17.2891 9.576C17.1305 9.268 16.9065 9.03 16.6171 8.862C16.3371 8.68467 16.0058 8.596 15.6231 8.596C15.2498 8.596 14.9185 8.68467 14.6291 8.862C14.3491 9.03 14.1251 9.268 13.9571 9.576C13.7985 9.884 13.7191 10.2387 13.7191 10.64C13.7191 11.0413 13.7985 11.396 13.9571 11.704C14.1251 12.012 14.3491 12.2547 14.6291 12.432C14.9185 12.6 15.2498 12.684 15.6231 12.684ZM17.4291 14V12.194L17.6951 10.556L17.4291 8.932V7.28H18.9691V14H17.4291ZM25.2842 14V10.122C25.2842 9.674 25.1396 9.30533 24.8502 9.016C24.5702 8.72667 24.2062 8.582 23.7582 8.582C23.4596 8.582 23.1936 8.64733 22.9602 8.778C22.7269 8.90867 22.5449 9.09067 22.4142 9.324C22.2836 9.55733 22.2182 9.82333 22.2182 10.122L21.6162 9.786C21.6162 9.27267 21.7282 8.82 21.9522 8.428C22.1762 8.02667 22.4842 7.714 22.8762 7.49C23.2776 7.25667 23.7256 7.14 24.2202 7.14C24.7242 7.14 25.1722 7.27067 25.5642 7.532C25.9562 7.784 26.2642 8.11533 26.4882 8.526C26.7122 8.92733 26.8242 9.34733 26.8242 9.786V14H25.2842ZM20.6782 14V7.28H22.2182V14H20.6782ZM30.5872 14.14C30.2138 14.14 29.8545 14.0933 29.5092 14C29.1638 13.8973 28.8465 13.7573 28.5572 13.58C28.2678 13.3933 28.0158 13.1693 27.8012 12.908L28.7812 11.928C29.0145 12.1987 29.2805 12.404 29.5792 12.544C29.8872 12.6747 30.2325 12.74 30.6152 12.74C30.9605 12.74 31.2218 12.6887 31.3992 12.586C31.5765 12.4833 31.6652 12.334 31.6652 12.138C31.6652 11.9327 31.5812 11.774 31.4132 11.662C31.2452 11.55 31.0258 11.4567 30.7552 11.382C30.4938 11.298 30.2138 11.214 29.9152 11.13C29.6258 11.046 29.3458 10.934 29.0752 10.794C28.8138 10.6447 28.5992 10.444 28.4312 10.192C28.2632 9.94 28.1792 9.61333 28.1792 9.212C28.1792 8.78267 28.2772 8.414 28.4732 8.106C28.6785 7.798 28.9632 7.56 29.3272 7.392C29.7005 7.224 30.1438 7.14 30.6572 7.14C31.1985 7.14 31.6745 7.238 32.0852 7.434C32.5052 7.62067 32.8552 7.90533 33.1352 8.288L32.1552 9.268C31.9592 9.02533 31.7352 8.84333 31.4832 8.722C31.2312 8.60067 30.9418 8.54 30.6152 8.54C30.3072 8.54 30.0692 8.58667 29.9012 8.68C29.7332 8.77333 29.6492 8.90867 29.6492 9.086C29.6492 9.27267 29.7332 9.41733 29.9012 9.52C30.0692 9.62267 30.2838 9.71133 30.5452 9.786C30.8158 9.86067 31.0958 9.94467 31.3852 10.038C31.6838 10.122 31.9638 10.2433 32.2252 10.402C32.4958 10.5513 32.7152 10.7567 32.8832 11.018C33.0512 11.27 33.1352 11.6013 33.1352 12.012C33.1352 12.6653 32.9065 13.1833 32.4492 13.566C31.9918 13.9487 31.3712 14.14 30.5872 14.14Z" fill="#5B5772"/>
<path d="M52.9141 6.78917C52.8599 6.73449 52.7954 6.69109 52.7243 6.66148C52.6532 6.63186 52.5769 6.61662 52.4999 6.61662C52.4229 6.61662 52.3467 6.63186 52.2756 6.66148C52.2045 6.69109 52.14 6.73449 52.0858 6.78917L49.4141 9.46083C49.3599 9.5155 49.2954 9.5589 49.2243 9.58851C49.1532 9.61813 49.0769 9.63338 48.9999 9.63338C48.9229 9.63338 48.8467 9.61813 48.7756 9.58851C48.7045 9.5589 48.64 9.5155 48.5858 9.46083L45.9141 6.78917C45.8599 6.73449 45.7954 6.69109 45.7243 6.66148C45.6532 6.63186 45.5769 6.61662 45.4999 6.61662C45.4229 6.61662 45.3467 6.63186 45.2756 6.66148C45.2045 6.69109 45.14 6.73449 45.0858 6.78917C44.9771 6.89846 44.9161 7.04631 44.9161 7.20042C44.9161 7.35452 44.9771 7.50237 45.0858 7.61166L47.7633 10.2892C48.0914 10.6169 48.5362 10.801 48.9999 10.801C49.4637 10.801 49.9085 10.6169 50.2366 10.2892L52.9141 7.61166C53.0227 7.50237 53.0837 7.35452 53.0837 7.20042C53.0837 7.04631 53.0227 6.89846 52.9141 6.78917Z" fill="#5B5772"/>
</svg>
