<svg width="73" height="18" viewBox="0 0 73 18" fill="none" xmlns="http://www.w3.org/2000/svg">
<path d="M2.17 10.304V8.904H4.62C4.956 8.904 5.25 8.83867 5.502 8.708C5.76333 8.568 5.96867 8.37667 6.118 8.134C6.26733 7.882 6.342 7.588 6.342 7.252C6.342 6.916 6.26733 6.62667 6.118 6.384C5.96867 6.132 5.76333 5.94067 5.502 5.81C5.25 5.67 4.956 5.6 4.62 5.6H2.17V4.2H4.704C5.32 4.2 5.87067 4.326 6.356 4.578C6.85067 4.83 7.238 5.18467 7.518 5.642C7.80733 6.09933 7.952 6.636 7.952 7.252C7.952 7.868 7.80733 8.40467 7.518 8.862C7.238 9.31933 6.85067 9.674 6.356 9.926C5.87067 10.178 5.32 10.304 4.704 10.304H2.17ZM1.064 14V4.2H2.674V14H1.064ZM9.30322 14V7.28H10.8432V14H9.30322ZM10.8432 10.262L10.3112 9.996C10.3112 9.14667 10.4979 8.46067 10.8712 7.938C11.2539 7.406 11.8279 7.14 12.5932 7.14C12.9292 7.14 13.2326 7.20067 13.5032 7.322C13.7739 7.44333 14.0259 7.63933 14.2592 7.91L13.2512 8.946C13.1299 8.81533 12.9946 8.722 12.8452 8.666C12.6959 8.61 12.5232 8.582 12.3272 8.582C11.8979 8.582 11.5432 8.71733 11.2632 8.988C10.9832 9.25867 10.8432 9.68333 10.8432 10.262ZM17.8793 14.14C17.226 14.14 16.6333 13.986 16.1013 13.678C15.5693 13.3607 15.1446 12.936 14.8273 12.404C14.5193 11.872 14.3653 11.2793 14.3653 10.626C14.3653 9.97267 14.5193 9.38467 14.8273 8.862C15.1446 8.33933 15.5693 7.924 16.1013 7.616C16.6333 7.29867 17.226 7.14 17.8793 7.14C18.542 7.14 19.1393 7.294 19.6713 7.602C20.2033 7.91 20.6233 8.33 20.9313 8.862C21.2486 9.38467 21.4073 9.97267 21.4073 10.626C21.4073 11.2793 21.2486 11.872 20.9313 12.404C20.6233 12.936 20.2033 13.3607 19.6713 13.678C19.1393 13.986 18.542 14.14 17.8793 14.14ZM17.8793 12.656C18.262 12.656 18.598 12.572 18.8873 12.404C19.186 12.2267 19.4146 11.984 19.5733 11.676C19.7413 11.368 19.8253 11.018 19.8253 10.626C19.8253 10.234 19.7413 9.88867 19.5733 9.59C19.4053 9.29133 19.1766 9.058 18.8873 8.89C18.598 8.71267 18.262 8.624 17.8793 8.624C17.506 8.624 17.17 8.71267 16.8713 8.89C16.582 9.058 16.3533 9.29133 16.1853 9.59C16.0266 9.88867 15.9473 10.234 15.9473 10.626C15.9473 11.018 16.0266 11.368 16.1853 11.676C16.3533 11.984 16.582 12.2267 16.8713 12.404C17.17 12.572 17.506 12.656 17.8793 12.656ZM22.016 16.94C21.54 16.94 21.1527 16.8653 20.854 16.716C20.546 16.5667 20.266 16.3473 20.014 16.058L21.008 15.064C21.12 15.2133 21.246 15.3207 21.386 15.386C21.526 15.4607 21.6987 15.498 21.904 15.498C22.156 15.498 22.3707 15.4187 22.548 15.26C22.7347 15.1107 22.828 14.8867 22.828 14.588V7.28H24.368V14.574C24.368 15.0873 24.256 15.5167 24.032 15.862C23.8173 16.2167 23.5327 16.4827 23.178 16.66C22.8233 16.8467 22.436 16.94 22.016 16.94ZM23.626 6.048C23.3647 6.048 23.1453 5.95933 22.968 5.782C22.8 5.60467 22.716 5.38533 22.716 5.124C22.716 4.86267 22.8 4.64333 22.968 4.466C23.1453 4.28867 23.3647 4.2 23.626 4.2C23.8967 4.2 24.116 4.28867 24.284 4.466C24.452 4.64333 24.536 4.86267 24.536 5.124C24.536 5.38533 24.452 5.60467 24.284 5.782C24.116 5.95933 23.8967 6.048 23.626 6.048ZM29.2006 14.14C28.5286 14.14 27.9219 13.9907 27.3806 13.692C26.8486 13.384 26.4239 12.964 26.1066 12.432C25.7986 11.9 25.6446 11.3027 25.6446 10.64C25.6446 9.97733 25.7986 9.38467 26.1066 8.862C26.4146 8.33 26.8299 7.91 27.3526 7.602C27.8846 7.294 28.4726 7.14 29.1166 7.14C29.7419 7.14 30.2926 7.28467 30.7686 7.574C31.2539 7.86333 31.6319 8.26 31.9026 8.764C32.1826 9.268 32.3226 9.842 32.3226 10.486C32.3226 10.598 32.3133 10.7147 32.2946 10.836C32.2853 10.948 32.2666 11.074 32.2386 11.214H26.7226V9.954H31.4406L30.8666 10.458C30.8479 10.0473 30.7686 9.702 30.6286 9.422C30.4886 9.142 30.2879 8.92733 30.0266 8.778C29.7746 8.62867 29.4619 8.554 29.0886 8.554C28.6966 8.554 28.3559 8.638 28.0666 8.806C27.7773 8.974 27.5533 9.212 27.3946 9.52C27.2359 9.81867 27.1566 10.178 27.1566 10.598C27.1566 11.018 27.2406 11.3867 27.4086 11.704C27.5766 12.0213 27.8146 12.2687 28.1226 12.446C28.4306 12.614 28.7853 12.698 29.1866 12.698C29.5319 12.698 29.8493 12.6373 30.1386 12.516C30.4373 12.3947 30.6893 12.2173 30.8946 11.984L31.8746 12.978C31.5479 13.3607 31.1513 13.65 30.6846 13.846C30.2179 14.042 29.7233 14.14 29.2006 14.14ZM36.6511 14.14C35.9885 14.14 35.3865 13.986 34.8451 13.678C34.3131 13.37 33.8931 12.95 33.5851 12.418C33.2771 11.886 33.1231 11.2933 33.1231 10.64C33.1231 9.97733 33.2771 9.38467 33.5851 8.862C33.8931 8.33 34.3131 7.91 34.8451 7.602C35.3865 7.294 35.9885 7.14 36.6511 7.14C37.1738 7.14 37.6591 7.24267 38.1071 7.448C38.5645 7.644 38.9518 7.92867 39.2691 8.302L38.2611 9.324C38.0651 9.09067 37.8271 8.918 37.5471 8.806C37.2765 8.68467 36.9778 8.624 36.6511 8.624C36.2685 8.624 35.9278 8.71267 35.6291 8.89C35.3398 9.058 35.1111 9.29133 34.9431 9.59C34.7845 9.88867 34.7051 10.2387 34.7051 10.64C34.7051 11.032 34.7845 11.382 34.9431 11.69C35.1111 11.9887 35.3398 12.2267 35.6291 12.404C35.9278 12.572 36.2685 12.656 36.6511 12.656C36.9778 12.656 37.2765 12.6 37.5471 12.488C37.8271 12.3667 38.0651 12.1893 38.2611 11.956L39.2691 12.978C38.9518 13.3513 38.5645 13.6407 38.1071 13.846C37.6591 14.042 37.1738 14.14 36.6511 14.14ZM41.292 14V4.48H42.832V14H41.292ZM39.682 8.68V7.28H44.442V8.68H39.682ZM47.6223 14.14C47.249 14.14 46.8896 14.0933 46.5443 14C46.199 13.8973 45.8816 13.7573 45.5923 13.58C45.303 13.3933 45.051 13.1693 44.8363 12.908L45.8163 11.928C46.0496 12.1987 46.3156 12.404 46.6143 12.544C46.9223 12.6747 47.2676 12.74 47.6503 12.74C47.9956 12.74 48.257 12.6887 48.4343 12.586C48.6116 12.4833 48.7003 12.334 48.7003 12.138C48.7003 11.9327 48.6163 11.774 48.4483 11.662C48.2803 11.55 48.061 11.4567 47.7903 11.382C47.529 11.298 47.249 11.214 46.9503 11.13C46.661 11.046 46.381 10.934 46.1103 10.794C45.849 10.6447 45.6343 10.444 45.4663 10.192C45.2983 9.94 45.2143 9.61333 45.2143 9.212C45.2143 8.78267 45.3123 8.414 45.5083 8.106C45.7136 7.798 45.9983 7.56 46.3623 7.392C46.7356 7.224 47.179 7.14 47.6923 7.14C48.2336 7.14 48.7096 7.238 49.1203 7.434C49.5403 7.62067 49.8903 7.90533 50.1703 8.288L49.1903 9.268C48.9943 9.02533 48.7703 8.84333 48.5183 8.722C48.2663 8.60067 47.977 8.54 47.6503 8.54C47.3423 8.54 47.1043 8.58667 46.9363 8.68C46.7683 8.77333 46.6843 8.90867 46.6843 9.086C46.6843 9.27267 46.7683 9.41733 46.9363 9.52C47.1043 9.62267 47.319 9.71133 47.5803 9.786C47.851 9.86067 48.131 9.94467 48.4203 10.038C48.719 10.122 48.999 10.2433 49.2603 10.402C49.531 10.5513 49.7503 10.7567 49.9183 11.018C50.0863 11.27 50.1703 11.6013 50.1703 12.012C50.1703 12.6653 49.9416 13.1833 49.4843 13.566C49.027 13.9487 48.4063 14.14 47.6223 14.14Z" fill="#0A65E4"/>
<path d="M69.9141 6.78917C69.8599 6.73449 69.7954 6.69109 69.7243 6.66148C69.6532 6.63186 69.5769 6.61662 69.4999 6.61662C69.4229 6.61662 69.3467 6.63186 69.2756 6.66148C69.2045 6.69109 69.14 6.73449 69.0858 6.78917L66.4141 9.46083C66.3599 9.5155 66.2954 9.5589 66.2243 9.58851C66.1532 9.61813 66.0769 9.63338 65.9999 9.63338C65.9229 9.63338 65.8467 9.61813 65.7756 9.58851C65.7045 9.5589 65.64 9.5155 65.5858 9.46083L62.9141 6.78917C62.8599 6.73449 62.7954 6.69109 62.7243 6.66148C62.6532 6.63186 62.5769 6.61662 62.4999 6.61662C62.4229 6.61662 62.3467 6.63186 62.2756 6.66148C62.2045 6.69109 62.14 6.73449 62.0858 6.78917C61.9771 6.89846 61.9161 7.04631 61.9161 7.20042C61.9161 7.35452 61.9771 7.50237 62.0858 7.61166L64.7633 10.2892C65.0914 10.6169 65.5362 10.801 65.9999 10.801C66.4637 10.801 66.9085 10.6169 67.2366 10.2892L69.9141 7.61166C70.0227 7.50237 70.0837 7.35452 70.0837 7.20042C70.0837 7.04631 70.0227 6.89846 69.9141 6.78917Z" fill="#0A65E4"/>
</svg>
