<svg width="207" height="30" viewBox="0 0 207 30" fill="none" xmlns="http://www.w3.org/2000/svg">
<mask id="path-1-inside-1_3031_748" fill="white">
<path d="M0 5C0 2.23858 2.23858 0 5 0H202C204.761 0 207 2.23858 207 5V25C207 27.7614 204.761 30 202 30H5C2.23858 30 0 27.7614 0 25V5Z"/>
</mask>
<path d="M5 0V1H202V0V-1H5V0ZM207 5H206V25H207H208V5H207ZM202 30V29H5V30V31H202V30ZM0 25H1V5H0H-1V25H0ZM5 30V29C2.79086 29 1 27.2091 1 25H0H-1C-1 28.3137 1.6863 31 5 31V30ZM207 25H206C206 27.2091 204.209 29 202 29V30V31C205.314 31 208 28.3137 208 25H207ZM202 0V1C204.209 1 206 2.79086 206 5H207H208C208 1.68629 205.314 -1 202 -1V0ZM5 0V-1C1.68629 -1 -1 1.68629 -1 5H0H1C1 2.79086 2.79086 1 5 1V0Z" fill="#E7E7EB" mask="url(#path-1-inside-1_3031_748)"/>
<g clip-path="url(#clip0_3031_748)">
<path d="M31.8045 21.8625L27.8252 17.8831C28.9096 16.5569 29.4428 14.8645 29.3144 13.1562C29.1861 11.4478 28.406 9.85416 27.1356 8.70482C25.8652 7.55548 24.2016 6.9384 22.4889 6.98122C20.7763 7.02404 19.1457 7.72349 17.9343 8.93488C16.7229 10.1463 16.0234 11.7769 15.9806 13.4896C15.9378 15.2022 16.5549 16.8658 17.7042 18.1362C18.8535 19.4066 20.4472 20.1867 22.1556 20.315C23.8639 20.4434 25.5563 19.9102 26.8825 18.8258L30.8619 22.8051C30.9876 22.9266 31.156 22.9938 31.3308 22.9923C31.5056 22.9907 31.6728 22.9206 31.7964 22.797C31.92 22.6734 31.9901 22.5062 31.9916 22.3314C31.9932 22.1566 31.926 21.9882 31.8045 21.8625ZM22.6665 19.0005C21.6117 19.0005 20.5805 18.6877 19.7035 18.1016C18.8264 17.5156 18.1428 16.6827 17.7392 15.7081C17.3355 14.7336 17.2299 13.6612 17.4357 12.6267C17.6415 11.5921 18.1494 10.6418 18.8953 9.8959C19.6412 9.15002 20.5915 8.64207 21.626 8.43628C22.6606 8.2305 23.733 8.33611 24.7075 8.73978C25.682 9.14345 26.515 9.82704 27.101 10.7041C27.6871 11.5812 27.9999 12.6123 27.9999 13.6671C27.9983 15.0811 27.4359 16.4368 26.436 17.4366C25.4362 18.4365 24.0805 18.9989 22.6665 19.0005Z" fill="#726F86"/>
</g>
<path d="M47.85 20.14C47.0847 20.14 46.4313 20 45.89 19.72C45.3487 19.44 44.868 19.034 44.448 18.502L45.344 17.606C45.652 18.0353 46.0067 18.362 46.408 18.586C46.8093 18.8007 47.304 18.908 47.892 18.908C48.4707 18.908 48.9327 18.782 49.278 18.53C49.6327 18.278 49.81 17.9327 49.81 17.494C49.81 17.13 49.726 16.836 49.558 16.612C49.39 16.388 49.1613 16.206 48.872 16.066C48.592 15.9167 48.284 15.786 47.948 15.674C47.612 15.5527 47.276 15.4267 46.94 15.296C46.604 15.156 46.296 14.988 46.016 14.792C45.736 14.5867 45.5073 14.3207 45.33 13.994C45.162 13.6673 45.078 13.2567 45.078 12.762C45.078 12.2113 45.2087 11.7447 45.47 11.362C45.7407 10.97 46.1047 10.6713 46.562 10.466C47.0287 10.2513 47.5513 10.144 48.13 10.144C48.7647 10.144 49.334 10.27 49.838 10.522C50.342 10.7647 50.7527 11.0867 51.07 11.488L50.174 12.384C49.8847 12.048 49.572 11.796 49.236 11.628C48.9093 11.46 48.5313 11.376 48.102 11.376C47.5793 11.376 47.164 11.4927 46.856 11.726C46.548 11.95 46.394 12.2673 46.394 12.678C46.394 13.0047 46.478 13.2707 46.646 13.476C46.8233 13.672 47.052 13.84 47.332 13.98C47.612 14.12 47.92 14.2507 48.256 14.372C48.6013 14.484 48.942 14.61 49.278 14.75C49.614 14.89 49.922 15.0673 50.202 15.282C50.482 15.4967 50.706 15.7767 50.874 16.122C51.0513 16.458 51.14 16.8827 51.14 17.396C51.14 18.2547 50.8413 18.9267 50.244 19.412C49.656 19.8973 48.858 20.14 47.85 20.14ZM55.6739 20.14C55.0113 20.14 54.4139 19.9907 53.8819 19.692C53.3499 19.384 52.9299 18.9687 52.6219 18.446C52.3139 17.9233 52.1599 17.3307 52.1599 16.668C52.1599 16.0147 52.3093 15.4267 52.6079 14.904C52.9159 14.3813 53.3266 13.9707 53.8399 13.672C54.3626 13.364 54.9459 13.21 55.5899 13.21C56.2059 13.21 56.7473 13.35 57.2139 13.63C57.6899 13.91 58.0586 14.2973 58.3199 14.792C58.5906 15.2867 58.7259 15.8467 58.7259 16.472C58.7259 16.5653 58.7213 16.668 58.7119 16.78C58.7026 16.8827 58.6839 17.004 58.6559 17.144H53.0419V16.094H57.9839L57.5219 16.5C57.5219 16.052 57.4426 15.674 57.2839 15.366C57.1253 15.0487 56.9013 14.806 56.6119 14.638C56.3226 14.4607 55.9726 14.372 55.5619 14.372C55.1326 14.372 54.7546 14.4653 54.4279 14.652C54.1013 14.8387 53.8493 15.1 53.6719 15.436C53.4946 15.772 53.4059 16.1687 53.4059 16.626C53.4059 17.0927 53.4993 17.5033 53.6859 17.858C53.8726 18.2033 54.1386 18.474 54.4839 18.67C54.8293 18.8567 55.2259 18.95 55.6739 18.95C56.0473 18.95 56.3879 18.8847 56.6959 18.754C57.0133 18.6233 57.2839 18.4273 57.5079 18.166L58.3199 18.992C58.0026 19.3653 57.6106 19.65 57.1439 19.846C56.6866 20.042 56.1966 20.14 55.6739 20.14ZM62.9278 20.14C62.3211 20.14 61.7704 19.9907 61.2758 19.692C60.7811 19.384 60.3891 18.9687 60.0998 18.446C59.8198 17.9233 59.6798 17.3353 59.6798 16.682C59.6798 16.0287 59.8198 15.4407 60.0998 14.918C60.3891 14.3953 60.7764 13.98 61.2618 13.672C61.7564 13.364 62.3118 13.21 62.9278 13.21C63.4318 13.21 63.8798 13.3173 64.2718 13.532C64.6731 13.7373 64.9951 14.0267 65.2378 14.4C65.4804 14.764 65.6158 15.1887 65.6438 15.674V17.676C65.6158 18.152 65.4804 18.5767 65.2378 18.95C65.0044 19.3233 64.6871 19.6173 64.2858 19.832C63.8938 20.0373 63.4411 20.14 62.9278 20.14ZM63.1378 18.95C63.7631 18.95 64.2671 18.74 64.6498 18.32C65.0324 17.8907 65.2238 17.3447 65.2238 16.682C65.2238 16.2247 65.1351 15.828 64.9578 15.492C64.7898 15.1467 64.5471 14.8807 64.2298 14.694C63.9124 14.498 63.5438 14.4 63.1238 14.4C62.7038 14.4 62.3304 14.498 62.0038 14.694C61.6864 14.89 61.4344 15.1607 61.2478 15.506C61.0704 15.842 60.9818 16.2293 60.9818 16.668C60.9818 17.116 61.0704 17.5127 61.2478 17.858C61.4344 18.194 61.6911 18.46 62.0178 18.656C62.3444 18.852 62.7178 18.95 63.1378 18.95ZM65.1398 20V18.208L65.3778 16.584L65.1398 14.974V13.35H66.4138V20H65.1398ZM68.2482 20V13.35H69.5082V20H68.2482ZM69.5082 16.206L69.0322 15.996C69.0322 15.1467 69.2282 14.47 69.6202 13.966C70.0122 13.462 70.5769 13.21 71.3142 13.21C71.6502 13.21 71.9536 13.2707 72.2242 13.392C72.4949 13.504 72.7469 13.6953 72.9802 13.966L72.1542 14.82C72.0142 14.6707 71.8602 14.5633 71.6922 14.498C71.5242 14.4327 71.3282 14.4 71.1042 14.4C70.6376 14.4 70.2549 14.5493 69.9562 14.848C69.6576 15.1467 69.5082 15.5993 69.5082 16.206ZM76.6866 20.14C76.0333 20.14 75.4406 19.986 74.9086 19.678C74.3859 19.37 73.9706 18.9547 73.6626 18.432C73.3639 17.9 73.2146 17.312 73.2146 16.668C73.2146 16.0147 73.3639 15.4267 73.6626 14.904C73.9706 14.3813 74.3859 13.9707 74.9086 13.672C75.4406 13.364 76.0333 13.21 76.6866 13.21C77.1999 13.21 77.6759 13.308 78.1146 13.504C78.5533 13.6907 78.9313 13.966 79.2486 14.33L78.4086 15.17C78.2033 14.9273 77.9513 14.7453 77.6526 14.624C77.3633 14.4933 77.0413 14.428 76.6866 14.428C76.2666 14.428 75.8933 14.526 75.5666 14.722C75.2399 14.9087 74.9833 15.17 74.7966 15.506C74.6099 15.842 74.5166 16.2293 74.5166 16.668C74.5166 17.1067 74.6099 17.494 74.7966 17.83C74.9833 18.166 75.2399 18.432 75.5666 18.628C75.8933 18.824 76.2666 18.922 76.6866 18.922C77.0413 18.922 77.3633 18.8613 77.6526 18.74C77.9513 18.6093 78.2079 18.4227 78.4226 18.18L79.2486 19.02C78.9406 19.3747 78.5626 19.65 78.1146 19.846C77.6759 20.042 77.1999 20.14 76.6866 20.14ZM85.2022 20V16.122C85.2022 15.618 85.0436 15.2027 84.7262 14.876C84.4089 14.5493 83.9982 14.386 83.4942 14.386C83.1582 14.386 82.8596 14.4607 82.5982 14.61C82.3369 14.7593 82.1316 14.9647 81.9822 15.226C81.8329 15.4873 81.7582 15.786 81.7582 16.122L81.2402 15.828C81.2402 15.324 81.3522 14.876 81.5762 14.484C81.8002 14.092 82.1129 13.784 82.5142 13.56C82.9156 13.3267 83.3682 13.21 83.8722 13.21C84.3762 13.21 84.8196 13.322 85.2022 13.546C85.5942 13.77 85.9022 14.0827 86.1262 14.484C86.3502 14.8853 86.4622 15.3473 86.4622 15.87V20H85.2022ZM80.4982 20V10.004H81.7582V20H80.4982Z" fill="#726F86"/>
<defs>
<clipPath id="clip0_3031_748">
<rect width="16" height="16" fill="white" transform="translate(16 7)"/>
</clipPath>
</defs>
</svg>
