<svg width="63" height="18" viewBox="0 0 63 18" fill="none" xmlns="http://www.w3.org/2000/svg">
<path d="M3.528 14V4.48H5.138V14H3.528ZM0.336 5.67V4.2H8.33V5.67H0.336ZM10.9076 14.14C10.2356 14.14 9.62897 13.9907 9.08764 13.692C8.55564 13.384 8.13097 12.964 7.81364 12.432C7.50564 11.9 7.35164 11.3027 7.35164 10.64C7.35164 9.97733 7.50564 9.38467 7.81364 8.862C8.12164 8.33 8.53697 7.91 9.05964 7.602C9.59164 7.294 10.1796 7.14 10.8236 7.14C11.449 7.14 11.9996 7.28467 12.4756 7.574C12.961 7.86333 13.339 8.26 13.6096 8.764C13.8896 9.268 14.0296 9.842 14.0296 10.486C14.0296 10.598 14.0203 10.7147 14.0016 10.836C13.9923 10.948 13.9736 11.074 13.9456 11.214H8.42964V9.954H13.1476L12.5736 10.458C12.555 10.0473 12.4756 9.702 12.3356 9.422C12.1956 9.142 11.995 8.92733 11.7336 8.778C11.4816 8.62867 11.169 8.554 10.7956 8.554C10.4036 8.554 10.063 8.638 9.77364 8.806C9.48431 8.974 9.26031 9.212 9.10164 9.52C8.94297 9.81867 8.86364 10.178 8.86364 10.598C8.86364 11.018 8.94764 11.3867 9.11564 11.704C9.28364 12.0213 9.52164 12.2687 9.82964 12.446C10.1376 12.614 10.4923 12.698 10.8936 12.698C11.239 12.698 11.5563 12.6373 11.8456 12.516C12.1443 12.3947 12.3963 12.2173 12.6016 11.984L13.5816 12.978C13.255 13.3607 12.8583 13.65 12.3916 13.846C11.925 14.042 11.4303 14.14 10.9076 14.14ZM18.0782 14.14C17.4715 14.14 16.9208 13.986 16.4262 13.678C15.9408 13.37 15.5535 12.9547 15.2642 12.432C14.9842 11.9 14.8442 11.3073 14.8442 10.654C14.8442 9.99133 14.9842 9.39867 15.2642 8.876C15.5535 8.344 15.9408 7.924 16.4262 7.616C16.9208 7.29867 17.4715 7.14 18.0782 7.14C18.5915 7.14 19.0442 7.252 19.4362 7.476C19.8375 7.69067 20.1548 7.98933 20.3882 8.372C20.6215 8.75467 20.7382 9.18867 20.7382 9.674V11.606C20.7382 12.0913 20.6215 12.5253 20.3882 12.908C20.1642 13.2907 19.8515 13.594 19.4502 13.818C19.0488 14.0327 18.5915 14.14 18.0782 14.14ZM18.3302 12.684C18.8995 12.684 19.3568 12.4927 19.7022 12.11C20.0568 11.7273 20.2342 11.2373 20.2342 10.64C20.2342 10.2387 20.1548 9.884 19.9962 9.576C19.8375 9.268 19.6135 9.03 19.3242 8.862C19.0442 8.68467 18.7128 8.596 18.3302 8.596C17.9568 8.596 17.6255 8.68467 17.3362 8.862C17.0562 9.03 16.8322 9.268 16.6642 9.576C16.5055 9.884 16.4262 10.2387 16.4262 10.64C16.4262 11.0413 16.5055 11.396 16.6642 11.704C16.8322 12.012 17.0562 12.2547 17.3362 12.432C17.6255 12.6 17.9568 12.684 18.3302 12.684ZM20.1362 14V12.194L20.4022 10.556L20.1362 8.932V7.28H21.6762V14H20.1362ZM23.3853 14V7.28H24.9253V14H23.3853ZM27.8513 14V9.996C27.8513 9.548 27.7113 9.20267 27.4313 8.96C27.1513 8.708 26.8059 8.582 26.3953 8.582C26.1153 8.582 25.8633 8.638 25.6393 8.75C25.4246 8.862 25.2519 9.02533 25.1213 9.24C24.9906 9.44533 24.9253 9.69733 24.9253 9.996L24.3233 9.66C24.3233 9.14667 24.4353 8.70333 24.6593 8.33C24.8833 7.95667 25.1866 7.66733 25.5693 7.462C25.9519 7.24733 26.3813 7.14 26.8573 7.14C27.3333 7.14 27.7626 7.24267 28.1453 7.448C28.5279 7.65333 28.8313 7.94267 29.0553 8.316C29.2793 8.68933 29.3913 9.13733 29.3913 9.66V14H27.8513ZM32.3173 14V9.996C32.3173 9.548 32.1773 9.20267 31.8973 8.96C31.6173 8.708 31.2719 8.582 30.8613 8.582C30.5906 8.582 30.3433 8.638 30.1193 8.75C29.8953 8.862 29.7179 9.02533 29.5873 9.24C29.4566 9.44533 29.3913 9.69733 29.3913 9.996L28.5233 9.66C28.5699 9.14667 28.7193 8.70333 28.9713 8.33C29.2233 7.95667 29.5453 7.66733 29.9373 7.462C30.3386 7.24733 30.7773 7.14 31.2533 7.14C31.7386 7.14 32.1773 7.24267 32.5693 7.448C32.9613 7.65333 33.2739 7.94267 33.5073 8.316C33.7406 8.68933 33.8573 9.13733 33.8573 9.66V14H32.3173ZM37.6418 14.14C37.2685 14.14 36.9092 14.0933 36.5638 14C36.2185 13.8973 35.9012 13.7573 35.6118 13.58C35.3225 13.3933 35.0705 13.1693 34.8558 12.908L35.8358 11.928C36.0692 12.1987 36.3352 12.404 36.6338 12.544C36.9418 12.6747 37.2872 12.74 37.6698 12.74C38.0152 12.74 38.2765 12.6887 38.4538 12.586C38.6312 12.4833 38.7198 12.334 38.7198 12.138C38.7198 11.9327 38.6358 11.774 38.4678 11.662C38.2998 11.55 38.0805 11.4567 37.8098 11.382C37.5485 11.298 37.2685 11.214 36.9698 11.13C36.6805 11.046 36.4005 10.934 36.1298 10.794C35.8685 10.6447 35.6538 10.444 35.4858 10.192C35.3178 9.94 35.2338 9.61333 35.2338 9.212C35.2338 8.78267 35.3318 8.414 35.5278 8.106C35.7332 7.798 36.0178 7.56 36.3818 7.392C36.7552 7.224 37.1985 7.14 37.7118 7.14C38.2532 7.14 38.7292 7.238 39.1398 7.434C39.5598 7.62067 39.9098 7.90533 40.1898 8.288L39.2098 9.268C39.0138 9.02533 38.7898 8.84333 38.5378 8.722C38.2858 8.60067 37.9965 8.54 37.6698 8.54C37.3618 8.54 37.1238 8.58667 36.9558 8.68C36.7878 8.77333 36.7038 8.90867 36.7038 9.086C36.7038 9.27267 36.7878 9.41733 36.9558 9.52C37.1238 9.62267 37.3385 9.71133 37.5998 9.786C37.8705 9.86067 38.1505 9.94467 38.4398 10.038C38.7385 10.122 39.0185 10.2433 39.2798 10.402C39.5505 10.5513 39.7698 10.7567 39.9378 11.018C40.1058 11.27 40.1898 11.6013 40.1898 12.012C40.1898 12.6653 39.9612 13.1833 39.5038 13.566C39.0465 13.9487 38.4258 14.14 37.6418 14.14Z" fill="#5B5772"/>
<path d="M59.9141 6.78917C59.8599 6.73449 59.7954 6.69109 59.7243 6.66148C59.6532 6.63186 59.5769 6.61662 59.4999 6.61662C59.4229 6.61662 59.3467 6.63186 59.2756 6.66148C59.2045 6.69109 59.14 6.73449 59.0858 6.78917L56.4141 9.46083C56.3599 9.5155 56.2954 9.5589 56.2243 9.58851C56.1532 9.61813 56.0769 9.63338 55.9999 9.63338C55.9229 9.63338 55.8467 9.61813 55.7756 9.58851C55.7045 9.5589 55.64 9.5155 55.5858 9.46083L52.9141 6.78917C52.8599 6.73449 52.7954 6.69109 52.7243 6.66148C52.6532 6.63186 52.5769 6.61662 52.4999 6.61662C52.4229 6.61662 52.3467 6.63186 52.2756 6.66148C52.2045 6.69109 52.14 6.73449 52.0858 6.78917C51.9771 6.89846 51.9161 7.04631 51.9161 7.20042C51.9161 7.35452 51.9771 7.50237 52.0858 7.61166L54.7633 10.2892C55.0914 10.6169 55.5362 10.801 55.9999 10.801C56.4637 10.801 56.9085 10.6169 57.2366 10.2892L59.9141 7.61166C60.0227 7.50237 60.0837 7.35452 60.0837 7.20042C60.0837 7.04631 60.0227 6.89846 59.9141 6.78917Z" fill="#5B5772"/>
</svg>
