<svg width="30" height="30" viewBox="0 0 30 30" fill="none" xmlns="http://www.w3.org/2000/svg">
<path d="M0 4C0 1.79086 1.79086 0 4 0H26C28.2091 0 30 1.79086 30 4V26C30 28.2091 28.2091 30 26 30H4C1.79086 30 0 28.2091 0 26V4Z" fill="#6054BB"/>
<path d="M15.7168 19C13.9186 19 12.3842 18.3634 11.1102 17.089C9.83595 15.814 9.19995 14.2776 9.19995 12.4798C9.19995 11.1862 9.56535 9.98859 10.2948 8.88179C11.026 7.77619 11.9812 6.96199 13.1604 6.43599C13.2348 6.37939 13.3104 6.38959 13.3846 6.46399C13.478 6.52059 13.507 6.60379 13.4692 6.71719C13.1706 7.43099 13.0204 8.15039 13.0204 8.88179C13.0204 10.5498 13.6154 11.9778 14.8048 13.1682C15.994 14.3582 17.4216 14.9532 19.0888 14.9532C20.006 14.9532 20.8024 14.8132 21.4766 14.532C21.5508 14.4744 21.6252 14.484 21.6998 14.5584C21.7926 14.6152 21.8218 14.6984 21.7838 14.8118C21.2976 16.0864 20.5064 17.1024 19.41 17.8614C18.315 18.6204 17.084 19 15.7168 19Z" fill="#FA870B"/>
<path d="M18.7254 11.091C21.1204 11.091 23.0618 13.016 23.0618 15.391C23.0618 17.7658 21.1204 19.691 18.7254 19.691L18.7734 19.6906L18.7736 19.691L18.7492 19.6908H10.6364L10.6362 19.6904L10.5722 19.691C8.51165 19.691 6.83685 18.0524 6.80065 16.0176L6.80005 15.9504C6.80005 13.8846 8.48885 12.21 10.5722 12.21C12.4726 12.21 14.0448 13.6034 14.3062 15.416H14.389V15.391C14.389 13.0398 16.2918 11.1294 18.6536 11.0914L18.7254 11.091Z" fill="#DFF1FB"/>
<path d="M10.709 20.3164C11.2302 20.3164 11.4908 20.577 11.4908 21.0982C11.4908 21.6194 11.2302 21.88 10.709 21.88C10.1878 21.88 9.92725 21.6194 9.92725 21.0982C9.92725 20.577 10.1878 20.3164 10.709 20.3164Z" fill="#DFF1FB"/>
<path d="M13.5236 20.3164C14.0448 20.3164 14.3054 20.577 14.3054 21.0982C14.3054 21.6194 14.0448 21.88 13.5236 21.88C13.0024 21.88 12.7418 21.6194 12.7418 21.0982C12.7418 20.577 13.0024 20.3164 13.5236 20.3164Z" fill="#DFF1FB"/>
<path d="M16.3382 20.3164C16.8594 20.3164 17.12 20.577 17.12 21.0982C17.12 21.6194 16.8594 21.88 16.3382 21.88C15.817 21.88 15.5564 21.6194 15.5564 21.0982C15.5564 20.577 15.817 20.3164 16.3382 20.3164Z" fill="#DFF1FB"/>
<path d="M19.1528 20.3164C19.674 20.3164 19.9346 20.577 19.9346 21.0982C19.9346 21.6194 19.674 21.88 19.1528 21.88C18.6316 21.88 18.371 21.6194 18.371 21.0982C18.371 20.577 18.6316 20.3164 19.1528 20.3164Z" fill="#DFF1FB"/>
<path d="M17.7454 22.349H17.7456C18.1625 22.349 18.371 22.5575 18.371 22.9744V22.9746C18.371 23.3915 18.1625 23.6 17.7456 23.6H17.7454C17.3285 23.6 17.12 23.3915 17.12 22.9746V22.9744C17.12 22.5575 17.3285 22.349 17.7454 22.349Z" fill="#DFF1FB"/>
<path d="M14.9308 22.349H14.931C15.348 22.349 15.5564 22.5575 15.5564 22.9744V22.9746C15.5564 23.3915 15.348 23.6 14.931 23.6H14.9308C14.5139 23.6 14.3054 23.3915 14.3054 22.9746V22.9744C14.3054 22.5575 14.5139 22.349 14.9308 22.349Z" fill="#DFF1FB"/>
<path d="M12.1164 22.349H12.1166C12.5335 22.349 12.742 22.5575 12.742 22.9744V22.9746C12.742 23.3915 12.5335 23.6 12.1166 23.6H12.1164C11.6994 23.6 11.491 23.3915 11.491 22.9746V22.9744C11.491 22.5575 11.6994 22.349 12.1164 22.349Z" fill="#DFF1FB"/>
</svg>
