<svg width="85" height="18" viewBox="0 0 85 18" fill="none" xmlns="http://www.w3.org/2000/svg">
<path d="M4.13 10.08L0.308 4.2H2.17L5.152 8.89H4.284L7.266 4.2H9.1L5.25 10.08H4.13ZM3.906 14V9.072H5.516V14H3.906ZM11.2895 14.14C10.6361 14.14 10.0435 13.986 9.51147 13.678C8.97947 13.3607 8.5548 12.936 8.23747 12.404C7.92947 11.872 7.77547 11.2793 7.77547 10.626C7.77547 9.97267 7.92947 9.38467 8.23747 8.862C8.5548 8.33933 8.97947 7.924 9.51147 7.616C10.0435 7.29867 10.6361 7.14 11.2895 7.14C11.9521 7.14 12.5495 7.294 13.0815 7.602C13.6135 7.91 14.0335 8.33 14.3415 8.862C14.6588 9.38467 14.8175 9.97267 14.8175 10.626C14.8175 11.2793 14.6588 11.872 14.3415 12.404C14.0335 12.936 13.6135 13.3607 13.0815 13.678C12.5495 13.986 11.9521 14.14 11.2895 14.14ZM11.2895 12.656C11.6721 12.656 12.0081 12.572 12.2975 12.404C12.5961 12.2267 12.8248 11.984 12.9835 11.676C13.1515 11.368 13.2355 11.018 13.2355 10.626C13.2355 10.234 13.1515 9.88867 12.9835 9.59C12.8155 9.29133 12.5868 9.058 12.2975 8.89C12.0081 8.71267 11.6721 8.624 11.2895 8.624C10.9161 8.624 10.5801 8.71267 10.2815 8.89C9.99214 9.058 9.76347 9.29133 9.59547 9.59C9.4368 9.88867 9.35747 10.234 9.35747 10.626C9.35747 11.018 9.4368 11.368 9.59547 11.676C9.76347 11.984 9.99214 12.2267 10.2815 12.404C10.5801 12.572 10.9161 12.656 11.2895 12.656ZM18.8561 14.14C18.2868 14.14 17.7781 14.014 17.3301 13.762C16.8915 13.51 16.5461 13.1647 16.2941 12.726C16.0515 12.278 15.9301 11.7647 15.9301 11.186V7.28H17.4701V11.116C17.4701 11.4427 17.5215 11.7227 17.6241 11.956C17.7361 12.18 17.8948 12.3527 18.1001 12.474C18.3148 12.5953 18.5668 12.656 18.8561 12.656C19.3041 12.656 19.6448 12.5253 19.8781 12.264C20.1208 11.9933 20.2421 11.6107 20.2421 11.116V7.28H21.7821V11.186C21.7821 11.774 21.6561 12.292 21.4041 12.74C21.1615 13.1787 20.8208 13.524 20.3821 13.776C19.9435 14.0187 19.4348 14.14 18.8561 14.14ZM23.3306 14V7.28H24.8706V14H23.3306ZM24.8706 10.262L24.3386 9.996C24.3386 9.14667 24.5252 8.46067 24.8986 7.938C25.2812 7.406 25.8552 7.14 26.6206 7.14C26.9566 7.14 27.2599 7.20067 27.5306 7.322C27.8012 7.44333 28.0532 7.63933 28.2866 7.91L27.2786 8.946C27.1572 8.81533 27.0219 8.722 26.8726 8.666C26.7232 8.61 26.5506 8.582 26.3546 8.582C25.9252 8.582 25.5706 8.71733 25.2906 8.988C25.0106 9.25867 24.8706 9.68333 24.8706 10.262ZM34.0406 14L31.3386 7.28H32.9346L34.7546 12.166L34.2786 12.18L36.0566 7.28H36.9526L38.7306 12.18L38.2546 12.166L40.0746 7.28H41.6706L38.9686 14H38.0726L36.2526 9.352H36.7566L34.9366 14H34.0406ZM45.5512 14.14C44.8979 14.14 44.3052 13.986 43.7732 13.678C43.2412 13.3607 42.8165 12.936 42.4992 12.404C42.1912 11.872 42.0372 11.2793 42.0372 10.626C42.0372 9.97267 42.1912 9.38467 42.4992 8.862C42.8165 8.33933 43.2412 7.924 43.7732 7.616C44.3052 7.29867 44.8979 7.14 45.5512 7.14C46.2139 7.14 46.8112 7.294 47.3432 7.602C47.8752 7.91 48.2952 8.33 48.6032 8.862C48.9205 9.38467 49.0792 9.97267 49.0792 10.626C49.0792 11.2793 48.9205 11.872 48.6032 12.404C48.2952 12.936 47.8752 13.3607 47.3432 13.678C46.8112 13.986 46.2139 14.14 45.5512 14.14ZM45.5512 12.656C45.9339 12.656 46.2699 12.572 46.5592 12.404C46.8579 12.2267 47.0865 11.984 47.2452 11.676C47.4132 11.368 47.4972 11.018 47.4972 10.626C47.4972 10.234 47.4132 9.88867 47.2452 9.59C47.0772 9.29133 46.8485 9.058 46.5592 8.89C46.2699 8.71267 45.9339 8.624 45.5512 8.624C45.1779 8.624 44.8419 8.71267 44.5432 8.89C44.2539 9.058 44.0252 9.29133 43.8572 9.59C43.6985 9.88867 43.6192 10.234 43.6192 10.626C43.6192 11.018 43.6985 11.368 43.8572 11.676C44.0252 11.984 44.2539 12.2267 44.5432 12.404C44.8419 12.572 45.1779 12.656 45.5512 12.656ZM50.3599 14V7.28H51.8999V14H50.3599ZM51.8999 10.262L51.3679 9.996C51.3679 9.14667 51.5545 8.46067 51.9279 7.938C52.3105 7.406 52.8845 7.14 53.6499 7.14C53.9859 7.14 54.2892 7.20067 54.5599 7.322C54.8305 7.44333 55.0825 7.63933 55.3159 7.91L54.3079 8.946C54.1865 8.81533 54.0512 8.722 53.9019 8.666C53.7525 8.61 53.5799 8.582 53.3839 8.582C52.9545 8.582 52.5999 8.71733 52.3199 8.988C52.0399 9.25867 51.8999 9.68333 51.8999 10.262ZM60.331 14L57.489 10.57L60.317 7.28H62.151L58.903 10.976L58.973 10.094L62.291 14H60.331ZM56.061 14V3.92H57.601V14H56.061Z" fill="#5B5772"/>
<path d="M81.9141 6.78917C81.8599 6.73449 81.7954 6.69109 81.7243 6.66148C81.6532 6.63186 81.5769 6.61662 81.4999 6.61662C81.4229 6.61662 81.3467 6.63186 81.2756 6.66148C81.2045 6.69109 81.14 6.73449 81.0858 6.78917L78.4141 9.46083C78.3599 9.5155 78.2954 9.5589 78.2243 9.58851C78.1532 9.61813 78.0769 9.63338 77.9999 9.63338C77.9229 9.63338 77.8467 9.61813 77.7756 9.58851C77.7045 9.5589 77.64 9.5155 77.5858 9.46083L74.9141 6.78917C74.8599 6.73449 74.7954 6.69109 74.7243 6.66148C74.6532 6.63186 74.5769 6.61662 74.4999 6.61662C74.4229 6.61662 74.3467 6.63186 74.2756 6.66148C74.2045 6.69109 74.14 6.73449 74.0858 6.78917C73.9771 6.89846 73.9161 7.04631 73.9161 7.20042C73.9161 7.35452 73.9771 7.50237 74.0858 7.61166L76.7633 10.2892C77.0914 10.6169 77.5362 10.801 77.9999 10.801C78.4637 10.801 78.9085 10.6169 79.2366 10.2892L81.9141 7.61166C82.0227 7.50237 82.0837 7.35452 82.0837 7.20042C82.0837 7.04631 82.0227 6.89846 81.9141 6.78917Z" fill="#5B5772"/>
</svg>
